<?xml version="1.0" encoding="UTF-8" standalone="no"?>
<svg
   xmlns:dc="http://purl.org/dc/elements/1.1/"
   xmlns:cc="http://creativecommons.org/ns#"
   xmlns:rdf="http://www.w3.org/1999/02/22-rdf-syntax-ns#"
   xmlns:svg="http://www.w3.org/2000/svg"
   xmlns="http://www.w3.org/2000/svg"
   xmlns:sodipodi="http://sodipodi.sourceforge.net/DTD/sodipodi-0.dtd"
   xmlns:inkscape="http://www.inkscape.org/namespaces/inkscape"
   width="80"
   height="160"
   viewBox="0 0 21.166666 42.333335"
   version="1.1"
   id="svg8"
   inkscape:version="1.0.1 (3bc2e813f5, 2020-09-07)"
   inkscape:export-filename="/home/pwinckles/workspace/pcio/tichu/png/bird.png"
   inkscape:export-xdpi="96"
   inkscape:export-ydpi="96"
   sodipodi:docname="bird.svg">
  <defs
     id="defs2" />
  <sodipodi:namedview
     id="base"
     pagecolor="#ffffff"
     bordercolor="#666666"
     borderopacity="1.0"
     inkscape:pageopacity="0.0"
     inkscape:pageshadow="2"
     inkscape:zoom="1"
     inkscape:cx="40"
     inkscape:cy="80"
     inkscape:document-units="px"
     inkscape:current-layer="layer1"
     inkscape:document-rotation="0"
     showgrid="true"
     units="px"
     inkscape:window-width="1421"
     inkscape:window-height="1053"
     inkscape:window-x="0"
     inkscape:window-y="27"
     inkscape:window-maximized="0">
    <sodipodi:guide
       position="27.752678,42.388774"
       orientation="0,1"
       id="guide837"
       inkscape:label=""
       inkscape:locked="false"
       inkscape:color="rgb(0,0,255)" />
    <sodipodi:guide
       position="21.166667,42.333333"
       orientation="160,0"
       id="guide839" />
    <sodipodi:guide
       position="23.199007,-0.071621617"
       orientation="0,1"
       id="guide841"
       inkscape:label=""
       inkscape:locked="false"
       inkscape:color="rgb(0,0,255)" />
    <sodipodi:guide
       position="0,0"
       orientation="-160,0"
       id="guide843" />
  </sodipodi:namedview>
  <metadata
     id="metadata5">
    <rdf:RDF>
      <cc:Work
         rdf:about="">
        <dc:format>image/svg+xml</dc:format>
        <dc:type
           rdf:resource="http://purl.org/dc/dcmitype/StillImage" />
        <dc:title></dc:title>
        <cc:license
           rdf:resource="http://creativecommons.org/licenses/by-sa/4.0/" />
      </cc:Work>
      <cc:License
         rdf:about="http://creativecommons.org/licenses/by-sa/4.0/">
        <cc:permits
           rdf:resource="http://creativecommons.org/ns#Reproduction" />
        <cc:permits
           rdf:resource="http://creativecommons.org/ns#Distribution" />
        <cc:requires
           rdf:resource="http://creativecommons.org/ns#Notice" />
        <cc:requires
           rdf:resource="http://creativecommons.org/ns#Attribution" />
        <cc:permits
           rdf:resource="http://creativecommons.org/ns#DerivativeWorks" />
        <cc:requires
           rdf:resource="http://creativecommons.org/ns#ShareAlike" />
      </cc:License>
    </rdf:RDF>
  </metadata>
  <g
     inkscape:label="Layer 1"
     inkscape:groupmode="layer"
     id="layer1">
    <g
       id="g5136"
       transform="matrix(0.03507287,0,0,0.03507287,2.6458343,13.229213)"
       style="fill:#702963;fill-opacity:1">
      <g
         id="g5079"
         style="fill:#702963;fill-opacity:1">
	<g
   id="Layer_3_18_"
   style="fill:#702963;fill-opacity:1">
		<path
   d="m 452.629,309.368 -7.328,-23.138 c -0.539,0.17 -54.85,17.158 -135.373,24.276 -17.906,1.582 -38.021,2.728 -59.783,2.99 40.131,-5.183 73.787,-23.103 101.436,-52.812 64.445,0.913 87.961,-18.331 93.434,-28.842 0.656,-1.26 2.219,-5.608 2.219,-6.587 -1.621,-0.027 -16.613,6.111 -34.449,3.876 -13.018,-1.629 -26.809,-7.106 -40.863,-15.358 17.092,-15.02 26.635,-34.01 31.713,-43.991 l 7.387,-17.21 c 0,0 -37.949,1.541 -93.072,-31.031 C 293.561,107.127 269.588,94.52 249.301,89.737 244.214,82.624 239.404,75.619 234.931,68.836 205.682,24.476 117.074,-13.472 59.479,93.147 c 0,0 -23.269,9.95 -33.051,14.038 v 2.2 c 8.021,5.856 16.079,11.667 24.025,17.622 -7.866,4.873 -15.656,9.872 -23.479,14.819 0.123,0.722 0.246,1.444 0.368,2.169 9.52,4.744 19.072,9.424 28.514,14.313 0.507,0.262 1.023,0.67 1.481,1.151 3.862,21.19 11.319,41.361 21.813,60.654 25.813,47.464 64.545,78.349 117.406,90.95 0.661,0.158 1.287,0.471 1.676,0.615 -0.043,0.227 -0.084,0.451 -0.126,0.676 C 140.752,309.122 76.194,298.799 11.665,275.038 L 3.278,297.813 C 22.99,305.072 42.692,311.11 62.199,316.124 34.473,331.484 4.631,354.533 0,358.15 l 14.939,19.128 C 61.191,339.064 99.05,324.46 99.05,324.46 c 50.65,9.936 99.087,13.371 141.804,13.371 26.148,0 50.156,-1.285 71.217,-3.146 22.334,-1.975 42.643,-4.663 60.451,-7.553 -5.623,8.867 -15.676,20.224 -33.404,29.94 -13.979,7.663 -30.52,9.265 -48.035,10.961 -28.001,2.711 -59.739,5.784 -80.983,36.984 l 20.062,13.661 c 12.839,-18.858 31.366,-23.026 52.952,-25.438 l -13.364,22.89 20.96,12.236 22.432,-38.42 c 12.785,-1.87 25.539,-4.956 37.645,-11.591 35.488,-19.453 47.369,-45.611 50.943,-56.523 31.079,-6.26 49.584,-12.048 50.899,-12.464 z M 113.256,121.925 c -8.65,-0.052 -15.607,-6.991 -15.665,-15.625 -0.059,-8.783 6.999,-15.928 15.756,-15.949 8.78,-0.022 15.848,7.06 15.83,15.857 -0.016,8.808 -7.071,15.771 -15.921,15.717 z m 79.37,11.115 c 8.83,-86.806 136.313,43.021 185.979,33.365 -5.836,11.453 -11.236,22.402 -19.174,31.774 7.938,-9.372 -15.117,17.85 0,0 -52.144,61.57 -175.41,19.437 -166.805,-65.139 z"
   id="path5076"
   style="fill:#702963;fill-opacity:1" />

	</g>

</g>
      <g
         id="g5081"
         style="fill:#702963;fill-opacity:1">
</g>
      <g
         id="g5083"
         style="fill:#702963;fill-opacity:1">
</g>
      <g
         id="g5085"
         style="fill:#702963;fill-opacity:1">
</g>
      <g
         id="g5087"
         style="fill:#702963;fill-opacity:1">
</g>
      <g
         id="g5089"
         style="fill:#702963;fill-opacity:1">
</g>
      <g
         id="g5091"
         style="fill:#702963;fill-opacity:1">
</g>
      <g
         id="g5093"
         style="fill:#702963;fill-opacity:1">
</g>
      <g
         id="g5095"
         style="fill:#702963;fill-opacity:1">
</g>
      <g
         id="g5097"
         style="fill:#702963;fill-opacity:1">
</g>
      <g
         id="g5099"
         style="fill:#702963;fill-opacity:1">
</g>
      <g
         id="g5101"
         style="fill:#702963;fill-opacity:1">
</g>
      <g
         id="g5103"
         style="fill:#702963;fill-opacity:1">
</g>
      <g
         id="g5105"
         style="fill:#702963;fill-opacity:1">
</g>
      <g
         id="g5107"
         style="fill:#702963;fill-opacity:1">
</g>
      <g
         id="g5109"
         style="fill:#702963;fill-opacity:1">
</g>
    </g>
    <text
       xml:space="preserve"
       style="font-size:8.81944px;line-height:1.25;font-family:C059;-inkscape-font-specification:C059;text-align:center;letter-spacing:0px;word-spacing:0px;text-anchor:middle;stroke-width:0.264583;fill:#702963;fill-opacity:1;"
       x="10.406943"
       y="10.177636"
       id="text5787"><tspan
         sodipodi:role="line"
         id="tspan5785"
         x="10.406943"
         y="10.177636"
         style="font-size:8.81944px;stroke-width:0.264583;fill:#702963;fill-opacity:1;">1</tspan></text>
  </g>
</svg>
