<?xml version="1.0" encoding="UTF-8" standalone="no"?>
<!-- Created with Inkscape (http://www.inkscape.org/) -->

<svg
   width="150"
   height="150"
   viewBox="0 0 39.687499 39.687501"
   version="1.1"
   id="svg1208"
   inkscape:version="1.1.1 (3bf5ae0d25, 2021-09-20)"
   sodipodi:docname="1-gold.svg"
   xmlns:inkscape="http://www.inkscape.org/namespaces/inkscape"
   xmlns:sodipodi="http://sodipodi.sourceforge.net/DTD/sodipodi-0.dtd"
   xmlns="http://www.w3.org/2000/svg"
   xmlns:svg="http://www.w3.org/2000/svg">
  <sodipodi:namedview
     id="namedview1210"
     pagecolor="#ffffff"
     bordercolor="#666666"
     borderopacity="1.0"
     inkscape:pageshadow="2"
     inkscape:pageopacity="0"
     inkscape:pagecheckerboard="true"
     inkscape:document-units="mm"
     showgrid="false"
     units="px"
     inkscape:zoom="1.42"
     inkscape:cx="-41.197183"
     inkscape:cy="188.02817"
     inkscape:window-width="1920"
     inkscape:window-height="1029"
     inkscape:window-x="0"
     inkscape:window-y="27"
     inkscape:window-maximized="1"
     inkscape:current-layer="layer1" />
  <defs
     id="defs1205" />
  <g
     inkscape:label="Layer 1"
     inkscape:groupmode="layer"
     id="layer1">
    <path
       d="m 37.434889,21.70818 v 15.7734 H 2.1592287 V 2.2059193 H 37.434889 V 17.977908"
       style="fill:none;stroke:#a9ab1d;stroke-width:1.00013;stroke-linecap:butt;stroke-linejoin:miter;stroke-miterlimit:10;stroke-dasharray:none;stroke-opacity:1"
       id="path252" />
    <path
       d="M 34.822642,21.845623 C 34.699875,21.780006 34.564409,21.714037 34.434234,21.63819 33.866261,21.30799 33.305698,20.963326 32.729611,20.646884 32.403645,20.467673 32.147175,20.16887 31.763,20.084556 c -0.02399,-0.0053 -0.05151,-0.201083 -0.0194,-0.223308 0.308327,-0.211667 0.618419,-0.424392 0.948266,-0.599722 0.680861,-0.36195 1.356078,-0.730603 1.966736,-1.204383 0.113595,-0.08855 0.179917,-0.06597 0.295275,0.0042 0.805392,0.490714 1.618545,0.968375 2.429228,1.450269 0.09454,0.05574 0.189089,0.111478 0.282575,0.168981 0.121356,0.07549 0.241653,0.153105 0.362656,0.229658 -0.118534,0.111125 -0.220134,0.252236 -0.357717,0.329495 -0.824089,0.461786 -1.642181,0.931686 -2.426406,1.460147 -0.105127,0.07091 -0.246944,0.08749 -0.421569,0.145697"
       style="fill:#a9ab1d;fill-opacity:1;fill-rule:nonzero;stroke:none;stroke-width:0.352778"
       id="path256" />
    <path
       d="m 19.962054,32.445502 c -0.0074,-0.217311 -0.01623,-0.434975 -0.0254,-0.652639 -0.01905,-0.459669 -0.03916,-0.935567 -0.03986,-1.404408 -0.0039,-4.186061 -0.0035,-8.371769 -0.0028,-12.55783 v -3.908073 c 0,-0.09349 0.0021,-0.186619 0.0035,-0.280458 0.0042,-0.216605 0.0085,-0.440619 -0.01129,-0.655814 -0.01905,-0.207433 -0.08502,-0.363361 -0.135114,-0.389466 -0.0067,-0.0032 -0.02646,-0.01129 -0.06738,-0.01129 -0.101247,0 -0.243416,0.04974 -0.317147,0.111125 -0.757061,0.627239 -1.514828,1.279877 -2.247547,1.91135 l -0.410986,0.354188 c -0.201083,0.173567 -0.371475,0.254 -0.536222,0.254 -0.214136,0 -0.411692,-0.130175 -0.660753,-0.43568 -0.141464,-0.173214 -0.202142,-0.342194 -0.179917,-0.501297 0.03316,-0.242006 0.242006,-0.406047 0.452614,-0.553509 1.300339,-0.908402 2.603853,-1.966383 4.101747,-3.329869 0.82162,-0.7475361 1.718734,-1.4368638 2.586567,-2.1036138 0.370416,-0.2846917 0.74048,-0.5693833 1.106311,-0.8590139 0.08855,-0.070556 0.185208,-0.1305277 0.281517,-0.1912055 l 0.125941,-0.080081 0.1524,0.060678 c 0.01235,0.052917 0.02822,0.1061861 0.0441,0.1591028 0.03634,0.1224139 0.07408,0.2487083 0.07444,0.3806472 0.0056,2.9446362 0.0053,5.8892722 0.0053,8.8332032 l -7.05e-4,4.256969 c -7.06e-4,2.575983 -0.0018,5.152319 0.0064,7.728655 0.0011,0.494948 0.0025,0.885825 -0.692503,1.166636 -0.487539,0.19685 -0.917222,0.587023 -1.333147,0.964142 -0.168275,0.152753 -0.33655,0.305506 -0.509059,0.446969 -0.377825,0.309034 -0.748947,0.626887 -1.120069,0.944387 l -0.486128,0.414866 z"
       style="fill:#a9ab1d;fill-opacity:1;fill-rule:nonzero;stroke:none;stroke-width:0.352778"
       id="path260" />
  </g>
</svg>
