<?xml version="1.0" encoding="UTF-8" standalone="no"?>
<!-- Created with Inkscape (http://www.inkscape.org/) -->

<svg
   width="150"
   height="150"
   viewBox="0 0 39.687499 39.687501"
   version="1.1"
   id="svg1208"
   inkscape:version="1.1.1 (3bf5ae0d25, 2021-09-20)"
   sodipodi:docname="1.svg"
   xmlns:inkscape="http://www.inkscape.org/namespaces/inkscape"
   xmlns:sodipodi="http://sodipodi.sourceforge.net/DTD/sodipodi-0.dtd"
   xmlns="http://www.w3.org/2000/svg"
   xmlns:svg="http://www.w3.org/2000/svg">
  <sodipodi:namedview
     id="namedview1210"
     pagecolor="#ffffff"
     bordercolor="#666666"
     borderopacity="1.0"
     inkscape:pageshadow="2"
     inkscape:pageopacity="0"
     inkscape:pagecheckerboard="true"
     inkscape:document-units="mm"
     showgrid="false"
     units="px"
     inkscape:zoom="1"
     inkscape:cx="97.5"
     inkscape:cy="398"
     inkscape:window-width="1920"
     inkscape:window-height="1029"
     inkscape:window-x="0"
     inkscape:window-y="27"
     inkscape:window-maximized="1"
     inkscape:current-layer="layer1" />
  <defs
     id="defs1205" />
  <g
     inkscape:label="Layer 1"
     inkscape:groupmode="layer"
     id="layer1">
    <g
       id="g1347"
       transform="matrix(0.35277777,0,0,-0.35277777,19.962054,32.445502)">
      <path
         d="M 0,0 V -44.712 H -99.994 V 55.282 H 0 V 10.574"
         style="fill:none;stroke:#ffffff;stroke-width:2.835;stroke-linecap:butt;stroke-linejoin:miter;stroke-miterlimit:10;stroke-dasharray:none;stroke-opacity:1"
         id="path252"
         transform="translate(49.529297,30.436503)" />
      <path
         d="m 0,0 c -0.348,0.186 -0.732,0.373 -1.101,0.588 -1.61,0.936 -3.199,1.913 -4.832,2.81 -0.924,0.508 -1.651,1.355 -2.74,1.594 -0.068,0.015 -0.146,0.57 -0.055,0.633 0.874,0.6 1.753,1.203 2.688,1.7 1.93,1.026 3.844,2.071 5.575,3.414 0.322,0.251 0.51,0.187 0.837,-0.012 C 2.655,9.336 4.96,7.982 7.258,6.616 7.526,6.458 7.794,6.3 8.059,6.137 8.403,5.923 8.744,5.703 9.087,5.486 8.751,5.171 8.463,4.771 8.073,4.552 5.737,3.243 3.418,1.911 1.195,0.413 0.897,0.212 0.495,0.165 0,0"
         style="fill:#ffffff;fill-opacity:1;fill-rule:nonzero;stroke:none"
         id="path256"
         transform="translate(42.124502,30.046901)" />
      <path
         d="m 0,0 c -0.021,0.616 -0.046,1.233 -0.072,1.85 -0.054,1.303 -0.111,2.652 -0.113,3.981 -0.011,11.866 -0.01,23.731 -0.008,35.597 v 11.078 c 0,0.265 0.006,0.529 0.01,0.795 0.012,0.614 0.024,1.249 -0.032,1.859 -0.054,0.588 -0.241,1.03 -0.383,1.104 -0.019,0.009 -0.075,0.032 -0.191,0.032 -0.287,0 -0.69,-0.141 -0.899,-0.315 -2.146,-1.778 -4.294,-3.628 -6.371,-5.418 l -1.165,-1.004 c -0.57,-0.492 -1.053,-0.72 -1.52,-0.72 -0.607,0 -1.167,0.369 -1.873,1.235 -0.401,0.491 -0.573,0.97 -0.51,1.421 0.094,0.686 0.686,1.151 1.283,1.569 3.686,2.575 7.381,5.574 11.627,9.439 2.329,2.119 4.872,4.073 7.332,5.963 1.05,0.807 2.099,1.614 3.136,2.435 0.251,0.2 0.525,0.37 0.798,0.542 l 0.357,0.227 0.432,-0.172 c 0.035,-0.15 0.08,-0.301 0.125,-0.451 0.103,-0.347 0.21,-0.705 0.211,-1.079 0.016,-8.347 0.015,-16.694 0.015,-25.039 L 12.187,32.862 C 12.185,25.56 12.182,18.257 12.205,10.954 12.208,9.551 12.212,8.443 10.242,7.647 8.86,7.089 7.642,5.983 6.463,4.914 5.986,4.481 5.509,4.048 5.02,3.647 3.949,2.771 2.897,1.87 1.845,0.97 L 0.467,-0.206 Z"
         style="fill:#ffffff;fill-opacity:1;fill-rule:nonzero;stroke:none"
         id="path260" />
    </g>
  </g>
</svg>
