<?xml version="1.0" encoding="UTF-8" standalone="no"?>
<!-- Created with Inkscape (http://www.inkscape.org/) -->

<svg
   width="150"
   height="150"
   viewBox="0 0 39.687499 39.687501"
   version="1.1"
   id="svg2247"
   inkscape:version="1.1.1 (3bf5ae0d25, 2021-09-20)"
   sodipodi:docname="2-gold.svg"
   xmlns:inkscape="http://www.inkscape.org/namespaces/inkscape"
   xmlns:sodipodi="http://sodipodi.sourceforge.net/DTD/sodipodi-0.dtd"
   xmlns="http://www.w3.org/2000/svg"
   xmlns:svg="http://www.w3.org/2000/svg">
  <sodipodi:namedview
     id="namedview2249"
     pagecolor="#ffffff"
     bordercolor="#666666"
     borderopacity="1.0"
     inkscape:pageshadow="2"
     inkscape:pageopacity="0.0"
     inkscape:pagecheckerboard="true"
     inkscape:document-units="mm"
     showgrid="false"
     units="px"
     inkscape:zoom="1.0824912"
     inkscape:cx="-255.42933"
     inkscape:cy="278.06231"
     inkscape:window-width="1920"
     inkscape:window-height="1029"
     inkscape:window-x="0"
     inkscape:window-y="27"
     inkscape:window-maximized="1"
     inkscape:current-layer="layer1" />
  <defs
     id="defs2244" />
  <g
     inkscape:label="Layer 1"
     inkscape:groupmode="layer"
     id="layer1">
    <path
       d="M 37.434889,21.708357 V 37.481404 H 2.1592287 V 2.2060963 H 37.434889 V 17.978085"
       style="fill:none;stroke:#a9ab1d;stroke-width:1.00013;stroke-linecap:butt;stroke-linejoin:miter;stroke-miterlimit:10;stroke-dasharray:none;stroke-opacity:1"
       id="path268" />
    <path
       d="M 34.822642,21.845483 C 34.699875,21.780219 34.564409,21.713897 34.434234,21.638402 33.866261,21.30785 33.305698,20.963186 32.729611,20.647097 32.403645,20.467533 32.147175,20.16873 31.763,20.084416 c -0.02399,-0.0053 -0.05151,-0.201083 -0.0194,-0.222955 0.308327,-0.21202 0.618772,-0.424745 0.948266,-0.599722 0.680861,-0.362303 1.356078,-0.730603 1.966736,-1.204736 0.113595,-0.0882 0.179917,-0.06562 0.295275,0.0046 0.805392,0.490714 1.618545,0.968375 2.429581,1.449916 0.09419,0.05609 0.188736,0.111478 0.282222,0.169334 0.121356,0.07549 0.241653,0.152752 0.362656,0.229305 -0.118534,0.111478 -0.220134,0.252589 -0.357717,0.329495 -0.824089,0.461786 -1.642181,0.932038 -2.426406,1.4605 -0.105127,0.07055 -0.246944,0.08714 -0.421569,0.145344"
       style="fill:#a9ab1d;fill-opacity:1;fill-rule:nonzero;stroke:none;stroke-width:0.352778"
       id="path272" />
    <path
       d="m 14.619058,32.000932 c -0.184856,0 -0.3175,-0.04304 -0.405694,-0.132292 -0.131234,-0.132644 -0.129117,-0.3302 -0.127,-0.521405 l 3.52e-4,-0.06526 c 0.0025,-0.916517 0.0021,-1.833386 0.0018,-2.750256 l -3.53e-4,-2.888191 c 0,-2.492728 0.02046,-2.530122 2.191809,-3.995561 l 0.173214,-0.116064 c 0.28328,-0.189089 0.576439,-0.384881 0.836083,-0.606425 0.220839,-0.188031 0.4318,-0.394406 0.636058,-0.593725 0.434975,-0.425803 0.884767,-0.86607 1.472142,-1.175808 0.272697,-0.143228 0.49283,-0.372886 0.726017,-0.615598 0.305858,-0.318911 0.621594,-0.6477 1.078794,-0.79763 l 0.01305,-0.617008 c 0.01164,-0.515409 0.02328,-1.03117 0.02611,-1.546931 0.0025,-0.338667 0.0321,-0.693914 0.06103,-1.036814 0.06668,-0.797278 0.136172,-1.621366 -0.142875,-2.266244 -0.259645,-0.600781 -0.898525,-1.0668 -1.516239,-1.517297 -0.277989,-0.202495 -0.565503,-0.412398 -0.818797,-0.633942 L 18.535244,9.8743575 c -0.0039,0.00882 -0.0071,0.017286 -0.01094,0.026105 -0.04375,0.1072435 -0.08537,0.2084915 -0.08643,0.3030365 l -0.006,0.506236 c -0.0127,1.004006 -0.02575,2.042231 0.01199,3.059642 0.02258,0.601485 -0.200378,0.993774 -0.722842,1.271763 -0.83185,0.442736 -1.582208,0.855134 -2.294114,1.260475 -0.09772,0.05574 -0.190853,0.168276 -0.281164,0.276577 -0.150636,0.181681 -0.306564,0.369712 -0.531283,0.369712 -0.101953,0 -0.202847,-0.03881 -0.308328,-0.119239 -0.203905,-0.15487 -0.203905,-0.512234 -0.203553,-0.890059 0,-0.137583 3.53e-4,-0.273755 -0.01094,-0.393347 -0.0081,-0.08467 -0.0032,-0.171097 0.0018,-0.257175 0.0063,-0.105128 0.01235,-0.203905 -0.0081,-0.292453 -0.4572,-1.976966 0.772231,-3.191227 1.894417,-4.028369 1.589616,-1.1856856 3.262489,-2.4712078 4.708525,-3.9959133 0.240594,-0.254 0.439208,-0.3672416 0.643466,-0.3672416 0.238831,0 0.450145,0.1552222 0.694267,0.3884083 0.950736,0.9091083 1.950861,1.7508361 2.889603,2.5258888 0.517878,0.4268611 0.723194,0.9369778 0.686153,1.7046228 -0.05821,1.207205 -0.05715,2.405238 0.0028,3.559528 0.0321,0.619477 -0.156634,1.039636 -0.61207,1.361721 -0.68333,0.483658 -1.310569,1.060803 -1.916994,1.618897 -0.708731,0.651581 -1.44145,1.325739 -2.276475,1.866194 -0.320675,0.207434 -0.593019,0.474486 -0.881592,0.758121 -0.366536,0.359832 -0.745772,0.732014 -1.235427,0.97543 -0.130175,0.06421 -0.234598,0.431094 -0.238125,0.704145 -0.01199,0.954616 -0.01164,1.909233 -0.01129,2.864201 3.52e-4,0.987778 7.05e-4,1.975204 -0.0127,2.962276 -0.0028,0.221192 0.02752,0.352073 0.09878,0.424392 0.06844,0.06915 0.190853,0.100189 0.397228,0.100189 l 0.03634,-3.53e-4 c 0.787048,-0.0127 1.574448,-0.01834 2.361848,-0.01834 0.842786,0 1.685219,0.0064 2.528005,0.01588 0.292806,0.0035 0.585964,0.05186 0.869597,0.09913 0.129822,0.02152 0.259645,0.04304 0.389467,0.06032 l 0.05891,0.168275 c -0.09137,0.09631 -0.181328,0.194734 -0.270934,0.293511 -0.197555,0.216606 -0.401813,0.441325 -0.626533,0.638528 -0.746478,0.656167 -1.566333,1.351492 -2.506486,2.126192 -0.138289,0.113594 -0.355247,0.187678 -0.552803,0.188383 -1.137355,0.0053 -2.274711,0.0056 -3.411714,0.006 -1.055863,3.53e-4 -2.111727,7.06e-4 -3.167238,0.0053 z"
       style="fill:#a9ab1d;fill-opacity:1;fill-rule:nonzero;stroke:none;stroke-width:0.352778"
       id="path276" />
  </g>
</svg>
