<?xml version="1.0" encoding="UTF-8" standalone="no"?>
<!-- Created with Inkscape (http://www.inkscape.org/) -->

<svg
   width="150"
   height="150"
   viewBox="0 0 39.687499 39.687501"
   version="1.1"
   id="svg2247"
   inkscape:version="1.1.1 (3bf5ae0d25, 2021-09-20)"
   sodipodi:docname="2.svg"
   xmlns:inkscape="http://www.inkscape.org/namespaces/inkscape"
   xmlns:sodipodi="http://sodipodi.sourceforge.net/DTD/sodipodi-0.dtd"
   xmlns="http://www.w3.org/2000/svg"
   xmlns:svg="http://www.w3.org/2000/svg">
  <sodipodi:namedview
     id="namedview2249"
     pagecolor="#ffffff"
     bordercolor="#666666"
     borderopacity="1.0"
     inkscape:pageshadow="2"
     inkscape:pageopacity="0.0"
     inkscape:pagecheckerboard="true"
     inkscape:document-units="mm"
     showgrid="false"
     units="px"
     inkscape:zoom="0.66368547"
     inkscape:cx="-74.583523"
     inkscape:cy="560.50647"
     inkscape:window-width="1920"
     inkscape:window-height="1029"
     inkscape:window-x="0"
     inkscape:window-y="27"
     inkscape:window-maximized="1"
     inkscape:current-layer="layer1" />
  <defs
     id="defs2244" />
  <g
     inkscape:label="Layer 1"
     inkscape:groupmode="layer"
     id="layer1">
    <g
       id="g2230"
       transform="matrix(0.35277777,0,0,-0.35277777,14.619058,32.000932)">
      <path
         d="M 0,0 V -44.711 H -99.994 V 55.282 H 0 V 10.574"
         style="fill:none;stroke:#ffffff;stroke-width:2.835;stroke-linecap:butt;stroke-linejoin:miter;stroke-miterlimit:10;stroke-dasharray:none;stroke-opacity:1"
         id="path268"
         transform="translate(64.674797,29.175803)" />
      <path
         d="m 0,0 c -0.348,0.185 -0.732,0.373 -1.101,0.587 -1.61,0.937 -3.199,1.914 -4.832,2.81 -0.924,0.509 -1.651,1.356 -2.74,1.595 -0.068,0.015 -0.146,0.57 -0.055,0.632 0.874,0.601 1.754,1.204 2.688,1.7 1.93,1.027 3.844,2.071 5.575,3.415 0.322,0.25 0.51,0.186 0.837,-0.013 C 2.655,9.335 4.96,7.981 7.259,6.616 7.526,6.457 7.794,6.3 8.059,6.136 8.403,5.922 8.744,5.703 9.087,5.486 8.751,5.17 8.463,4.77 8.073,4.552 5.737,3.243 3.418,1.91 1.195,0.412 0.897,0.212 0.495,0.165 0,0"
         style="fill:#ffffff;fill-opacity:1;fill-rule:nonzero;stroke:none"
         id="path272"
         transform="translate(57.270002,28.787101)" />
      <path
         d="m 0,0 c -0.524,0 -0.9,0.122 -1.15,0.375 -0.372,0.376 -0.366,0.936 -0.36,1.478 l 0.001,0.185 c 0.007,2.598 0.006,5.197 0.005,7.796 l -10e-4,8.187 c 0,7.066 0.058,7.172 6.213,11.326 l 0.491,0.329 c 0.803,0.536 1.634,1.091 2.37,1.719 0.626,0.533 1.224,1.118 1.803,1.683 1.233,1.207 2.508,2.455 4.173,3.333 0.773,0.406 1.397,1.057 2.058,1.745 0.867,0.904 1.762,1.836 3.058,2.261 l 0.037,1.749 c 0.033,1.461 0.066,2.923 0.074,4.385 0.007,0.96 0.091,1.967 0.173,2.939 0.189,2.26 0.386,4.596 -0.405,6.424 -0.736,1.703 -2.547,3.024 -4.298,4.301 -0.788,0.574 -1.603,1.169 -2.321,1.797 l -0.82,0.709 C 11.09,62.696 11.081,62.672 11.07,62.647 10.946,62.343 10.828,62.056 10.825,61.788 L 10.808,60.353 C 10.772,57.507 10.735,54.564 10.842,51.68 10.906,49.975 10.274,48.863 8.793,48.075 6.435,46.82 4.308,45.651 2.29,44.502 2.013,44.344 1.749,44.025 1.493,43.718 1.066,43.203 0.624,42.67 -0.013,42.67 c -0.289,0 -0.575,0.11 -0.874,0.338 -0.578,0.439 -0.578,1.452 -0.577,2.523 0,0.39 10e-4,0.776 -0.031,1.115 -0.023,0.24 -0.009,0.485 0.005,0.729 0.018,0.298 0.035,0.578 -0.023,0.829 -1.296,5.604 2.189,9.046 5.37,11.419 4.506,3.361 9.248,7.005 13.347,11.327 0.682,0.72 1.245,1.041 1.824,1.041 0.677,0 1.276,-0.44 1.968,-1.101 2.695,-2.577 5.53,-4.963 8.191,-7.16 1.468,-1.21 2.05,-2.656 1.945,-4.832 C 30.967,55.476 30.97,52.08 31.14,48.808 31.231,47.052 30.696,45.861 29.405,44.948 27.468,43.577 25.69,41.941 23.971,40.359 21.962,38.512 19.885,36.601 17.518,35.069 16.609,34.481 15.837,33.724 15.019,32.92 13.98,31.9 12.905,30.845 11.517,30.155 11.148,29.973 10.852,28.933 10.842,28.159 10.808,25.453 10.809,22.747 10.81,20.04 c 10e-4,-2.8 0.002,-5.599 -0.036,-8.397 -0.008,-0.627 0.078,-0.998 0.28,-1.203 0.194,-0.196 0.541,-0.284 1.126,-0.284 l 0.103,10e-4 c 2.231,0.036 4.463,0.052 6.695,0.052 2.389,0 4.777,-0.018 7.166,-0.045 0.83,-0.01 1.661,-0.147 2.465,-0.281 0.368,-0.061 0.736,-0.122 1.104,-0.171 L 29.88,9.235 C 29.621,8.962 29.366,8.683 29.112,8.403 28.552,7.789 27.973,7.152 27.336,6.593 25.22,4.733 22.896,2.762 20.231,0.566 19.839,0.244 19.224,0.034 18.664,0.032 15.44,0.017 12.216,0.016 8.993,0.015 6,0.014 3.007,0.013 0.015,0 Z"
         style="fill:#ffffff;fill-opacity:1;fill-rule:nonzero;stroke:none"
         id="path276" />
    </g>
  </g>
</svg>
