<?xml version="1.0" encoding="UTF-8" standalone="no"?>
<!-- Created with Inkscape (http://www.inkscape.org/) -->

<svg
   width="150"
   height="150"
   viewBox="0 0 39.687499 39.687501"
   version="1.1"
   id="svg2322"
   inkscape:version="1.1.1 (3bf5ae0d25, 2021-09-20)"
   sodipodi:docname="3-gold.svg"
   xmlns:inkscape="http://www.inkscape.org/namespaces/inkscape"
   xmlns:sodipodi="http://sodipodi.sourceforge.net/DTD/sodipodi-0.dtd"
   xmlns="http://www.w3.org/2000/svg"
   xmlns:svg="http://www.w3.org/2000/svg">
  <sodipodi:namedview
     id="namedview2324"
     pagecolor="#ffffff"
     bordercolor="#666666"
     borderopacity="1.0"
     inkscape:pageshadow="2"
     inkscape:pageopacity="0.0"
     inkscape:pagecheckerboard="true"
     inkscape:document-units="mm"
     showgrid="false"
     units="px"
     inkscape:zoom="4.05"
     inkscape:cx="21.358025"
     inkscape:cy="90.123457"
     inkscape:window-width="1920"
     inkscape:window-height="1029"
     inkscape:window-x="0"
     inkscape:window-y="27"
     inkscape:window-maximized="1"
     inkscape:current-layer="layer1" />
  <defs
     id="defs2319">
    <linearGradient
       id="linearGradient2697"
       inkscape:swatch="solid">
      <stop
         style="stop-color:#000000;stop-opacity:1;"
         offset="0"
         id="stop2695" />
    </linearGradient>
    <inkscape:path-effect
       effect="fill_between_many"
       method="originald"
       linkedpaths="#path296,0,1|"
       id="path-effect2809" />
  </defs>
  <g
     inkscape:label="Layer 1"
     inkscape:groupmode="layer"
     id="layer1">
    <path
       d="m 37.434889,21.70818 v 15.7734 H 2.1592287 V 2.2059193 H 37.434889 V 17.977908"
       style="fill:none;stroke:#a9ab1d;stroke-width:1.00013;stroke-linecap:butt;stroke-linejoin:miter;stroke-miterlimit:10;stroke-dasharray:none;stroke-opacity:1"
       id="path284" />
    <path
       d="m 34.822641,21.845269 c -0.122767,-0.06526 -0.258233,-0.131586 -0.388408,-0.207081 -0.567973,-0.3302 -1.128536,-0.674863 -1.704623,-0.991305 -0.325966,-0.179211 -0.582436,-0.478014 -0.966611,-0.562328 -0.02399,-0.0053 -0.05151,-0.201083 -0.0194,-0.223308 0.308327,-0.21202 0.618772,-0.424392 0.948266,-0.599722 0.680861,-0.36195 1.356078,-0.730603 1.966736,-1.204384 0.113595,-0.08855 0.179917,-0.06597 0.295275,0.0042 0.805392,0.490714 1.618545,0.968375 2.429581,1.449916 0.09419,0.05609 0.188736,0.111478 0.282222,0.169334 0.121356,0.07549 0.241653,0.152752 0.362656,0.229305 -0.118534,0.111478 -0.220134,0.252589 -0.357364,0.329847 -0.824442,0.461786 -1.642534,0.931686 -2.426759,1.460148 -0.105127,0.07091 -0.246944,0.08714 -0.421569,0.145344"
       style="fill:#a9ab1d;fill-opacity:1;fill-rule:nonzero;stroke:none;stroke-width:0.352778"
       id="path288" />
    <path
       inkscape:original-d="M 0,0"
       inkscape:path-effect="#path-effect2809"
       d="m 17.724278,7.1753937 c -0.173919,0 -0.292806,0.099836 -0.418394,0.2056694 -0.02258,0.019403 -0.04692,0.039511 -0.07267,0.060325 -0.466725,0.3767667 -0.951089,0.7496528 -1.41993,1.1098389 -0.655461,0.5044722 -1.333147,1.0262305 -1.976967,1.569861 -0.619478,0.522817 -1.181805,1.124303 -1.725789,1.706033 l -0.282927,0.301978 c -0.15487,0.164747 -0.168275,0.569383 -0.02469,0.746478 0.122767,0.151342 0.365125,0.21978 0.539045,0.21978 0.0575,0 0.110419,-0.0067 0.158044,-0.02046 0.293864,-0.08573 0.591608,-0.23495 0.838906,-0.421216 0.203552,-0.152753 0.385233,-0.324556 0.560563,-0.490714 0.297039,-0.280459 0.577145,-0.545747 0.958145,-0.731661 0.1905,-0.09278 0.320322,-0.134409 0.420864,-0.134409 0.117827,0 0.220839,0.05503 0.440266,0.235303 0.711906,0.583847 1.455209,1.150408 2.17417,1.698978 0.366536,0.2794 0.732719,0.5588 1.096433,0.841375 0.154164,0.119944 0.23742,0.231069 0.240595,0.321733 0.0035,0.100189 -0.09172,0.207434 -0.172509,0.279753 -0.09525,0.08537 -0.1778,0.185561 -0.257528,0.282928 -0.11818,0.144286 -0.230011,0.280811 -0.344311,0.317853 -0.756355,0.247297 -1.231547,0.788811 -1.691569,1.313038 -0.238831,0.272345 -0.464608,0.52952 -0.727428,0.747889 -0.218722,0.181681 -0.252589,0.363714 -0.242005,0.484717 0.01764,0.201083 0.16263,0.381 0.431447,0.534811 1.872897,1.073856 2.548466,2.248606 2.258483,3.92818 -0.0829,0.480484 -0.06103,0.976137 -0.03986,1.454856 0.0092,0.212372 0.01905,0.4318 0.01905,0.643467 v 0.813858 c 7.06e-4,1.043869 0.0011,2.087739 -0.0056,3.131608 0,0.01341 -0.0067,0.03387 -0.01623,0.05609 -0.01446,-0.0081 -0.02681,-0.01658 -0.03704,-0.0254 -0.333375,-0.287867 -0.664633,-0.57785 -0.995891,-0.867833 -0.623006,-0.545395 -1.267531,-1.109839 -1.915231,-1.650295 -0.07585,-0.06315 -0.152753,-0.130175 -0.230364,-0.197908 -0.405341,-0.352425 -0.824441,-0.717197 -1.31198,-0.79375 -0.0194,-0.0032 -0.03881,-0.0049 -0.05856,-0.0049 -0.271992,0 -0.499181,0.277283 -0.762353,0.598311 -0.131939,0.16122 -0.268464,0.328083 -0.396522,0.436739 -0.451909,0.383822 -0.934861,0.750711 -1.402292,1.1049 L 11.04096,27.20439 c -0.197203,0.150283 -0.380294,0.322086 -0.384175,0.557036 -0.0042,0.245886 0.198967,0.440972 0.352072,0.566208 1.442861,1.181453 2.990145,2.487789 4.87045,4.111625 0.178859,0.154869 0.347486,0.230011 0.515409,0.230011 0.249061,0 0.436033,-0.163336 0.617008,-0.321381 l 0.04763,-0.04163 c 0.443794,-0.383823 0.889705,-0.780345 1.3208,-1.163814 1.222728,-1.087614 2.487083,-2.211917 3.832225,-3.164064 0.979664,-0.693561 1.177572,-1.440392 1.173339,-2.348089 l -0.0046,-0.890764 c -0.0095,-1.678164 -0.01905,-3.41383 0.01482,-5.118452 0.01835,-0.922514 -0.242358,-1.610431 -0.796925,-2.103967 -0.68333,-0.607483 -1.45803,-1.296105 -2.335389,-1.745192 -0.08431,-0.04304 -0.136172,-0.07655 -0.168275,-0.09984 0.01693,-0.01235 0.03493,-0.02505 0.04974,-0.03563 0.03704,-0.02611 0.07444,-0.05292 0.108303,-0.08114 0.358775,-0.298097 0.735894,-0.588786 1.101019,-0.870303 0.198614,-0.153105 0.397228,-0.306211 0.594431,-0.461433 0.240947,-0.190147 0.480483,-0.381706 0.720372,-0.573264 0.365125,-0.291747 0.74295,-0.593372 1.118658,-0.883356 0.131939,-0.1016 0.282575,-0.243416 0.281164,-0.438855 -0.0018,-0.195792 -0.154869,-0.332317 -0.269875,-0.418042 -0.518936,-0.386997 -1.075619,-0.81915 -1.701094,-1.321505 C 21.814383,10.360271 21.530045,10.133083 21.245353,9.9058936 20.227942,9.0930937 19.175606,8.2524242 18.174422,7.3895298 18.002267,7.2413631 17.863625,7.1753937 17.724278,7.1753937 Z"
       id="path2811"
       style="fill:#a9ab1d;fill-opacity:1;stroke-width:1;stroke-miterlimit:4;stroke-dasharray:none;stroke:none;stroke-opacity:1" />
    <path
       d="m 17.724278,7.1753937 c -0.173919,0 -0.292806,0.099836 -0.418394,0.2056694 -0.02258,0.019403 -0.04692,0.039511 -0.07267,0.060325 -0.466725,0.3767667 -0.951089,0.7496528 -1.41993,1.1098389 -0.655461,0.5044722 -1.333147,1.0262305 -1.976967,1.569861 -0.619478,0.522817 -1.181805,1.124303 -1.725789,1.706033 l -0.282927,0.301978 c -0.15487,0.164747 -0.168275,0.569383 -0.02469,0.746478 0.122767,0.151342 0.365125,0.21978 0.539045,0.21978 0.0575,0 0.110419,-0.0067 0.158044,-0.02046 0.293864,-0.08573 0.591608,-0.23495 0.838906,-0.421216 0.203552,-0.152753 0.385233,-0.324556 0.560563,-0.490714 0.297039,-0.280459 0.577145,-0.545747 0.958145,-0.731661 0.1905,-0.09278 0.320322,-0.134409 0.420864,-0.134409 0.117827,0 0.220839,0.05503 0.440266,0.235303 0.711906,0.583847 1.455209,1.150408 2.17417,1.698978 0.366536,0.2794 0.732719,0.5588 1.096433,0.841375 0.154164,0.119944 0.23742,0.231069 0.240595,0.321733 0.0035,0.100189 -0.09172,0.207434 -0.172509,0.279753 -0.09525,0.08537 -0.1778,0.185561 -0.257528,0.282928 -0.11818,0.144286 -0.230011,0.280811 -0.344311,0.317853 -0.756355,0.247297 -1.231547,0.788811 -1.691569,1.313038 -0.238831,0.272345 -0.464608,0.52952 -0.727428,0.747889 -0.218722,0.181681 -0.252589,0.363714 -0.242005,0.484717 0.01764,0.201083 0.16263,0.381 0.431447,0.534811 1.872897,1.073856 2.548466,2.248606 2.258483,3.92818 -0.0829,0.480484 -0.06103,0.976137 -0.03986,1.454856 0.0092,0.212372 0.01905,0.4318 0.01905,0.643467 v 0.813858 c 7.06e-4,1.043869 0.0011,2.087739 -0.0056,3.131608 0,0.01341 -0.0067,0.03387 -0.01623,0.05609 -0.01446,-0.0081 -0.02681,-0.01658 -0.03704,-0.0254 -0.333375,-0.287867 -0.664633,-0.57785 -0.995891,-0.867833 -0.623006,-0.545395 -1.267531,-1.109839 -1.915231,-1.650295 -0.07585,-0.06315 -0.152753,-0.130175 -0.230364,-0.197908 -0.405341,-0.352425 -0.824441,-0.717197 -1.31198,-0.79375 -0.0194,-0.0032 -0.03881,-0.0049 -0.05856,-0.0049 -0.271992,0 -0.499181,0.277283 -0.762353,0.598311 -0.131939,0.16122 -0.268464,0.328083 -0.396522,0.436739 -0.451909,0.383822 -0.934861,0.750711 -1.402292,1.1049 L 11.04096,27.20439 c -0.197203,0.150283 -0.380294,0.322086 -0.384175,0.557036 -0.0042,0.245886 0.198967,0.440972 0.352072,0.566208 1.442861,1.181453 2.990145,2.487789 4.87045,4.111625 0.178859,0.154869 0.347486,0.230011 0.515409,0.230011 0.249061,0 0.436033,-0.163336 0.617008,-0.321381 l 0.04763,-0.04163 c 0.443794,-0.383823 0.889705,-0.780345 1.3208,-1.163814 1.222728,-1.087614 2.487083,-2.211917 3.832225,-3.164064 0.979664,-0.693561 1.177572,-1.440392 1.173339,-2.348089 l -0.0046,-0.890764 c -0.0095,-1.678164 -0.01905,-3.41383 0.01482,-5.118452 0.01835,-0.922514 -0.242358,-1.610431 -0.796925,-2.103967 -0.68333,-0.607483 -1.45803,-1.296105 -2.335389,-1.745192 -0.08431,-0.04304 -0.136172,-0.07655 -0.168275,-0.09984 0.01693,-0.01235 0.03493,-0.02505 0.04974,-0.03563 0.03704,-0.02611 0.07444,-0.05292 0.108303,-0.08114 0.358775,-0.298097 0.735894,-0.588786 1.101019,-0.870303 0.198614,-0.153105 0.397228,-0.306211 0.594431,-0.461433 0.240947,-0.190147 0.480483,-0.381706 0.720372,-0.573264 0.365125,-0.291747 0.74295,-0.593372 1.118658,-0.883356 0.131939,-0.1016 0.282575,-0.243416 0.281164,-0.438855 -0.0018,-0.195792 -0.154869,-0.332317 -0.269875,-0.418042 -0.518936,-0.386997 -1.075619,-0.81915 -1.701094,-1.321505 C 21.814383,10.360271 21.530045,10.133083 21.245353,9.9058936 20.227942,9.0930937 19.175606,8.2524242 18.174422,7.3895298 18.002267,7.2413631 17.863625,7.1753937 17.724278,7.1753937 m 0,0.200025 c 0.08361,0 0.181328,0.046567 0.319617,0.1658055 1.279525,1.1024306 2.611613,2.1445361 3.928886,3.2028698 0.561622,0.451555 1.129241,0.895702 1.706739,1.326091 0.277283,0.206728 0.230716,0.349603 -0.01411,0.538339 -0.619477,0.478367 -1.22555,0.973314 -1.840441,1.457678 -0.565856,0.445911 -1.145822,0.875242 -1.699331,1.335264 -0.1905,0.158397 -0.516466,0.260703 0.04657,0.548569 0.839258,0.429331 1.579739,1.081617 2.293761,1.716617 0.556331,0.494594 0.745419,1.17475 0.729897,1.950508 -0.03986,2.003778 -0.01975,4.009319 -0.01023,6.01345 0.0042,0.919692 -0.205317,1.558572 -1.088673,2.1844 -1.830211,1.295753 -3.466041,2.867025 -5.168547,4.340225 -0.189089,0.163336 -0.343252,0.313972 -0.533752,0.313972 -0.110773,0 -0.234598,-0.05115 -0.384881,-0.180975 -1.609019,-1.390297 -3.228975,-2.768247 -4.87433,-4.115153 -0.425098,-0.348191 -0.322087,-0.54363 0.02681,-0.809625 0.572911,-0.437091 1.152877,-0.866422 1.701094,-1.332794 0.369006,-0.313267 0.741539,-0.987425 1.029406,-0.987425 0.0092,0 0.01834,7.06e-4 0.02752,0.0021 0.519995,0.0822 0.996598,0.573264 1.445331,0.947914 0.983897,0.821266 1.938514,1.678163 2.9083,2.516363 0.07408,0.0635 0.17533,0.0956 0.263878,0.142875 0.04198,-0.108302 0.119591,-0.215547 0.120297,-0.32385 0.0085,-1.315861 0.0056,-2.631369 0.0056,-3.946877 0,-0.688975 -0.09772,-1.394884 0.01799,-2.064103 0.354542,-2.054578 -0.771878,-3.227564 -2.356203,-4.135614 -0.37853,-0.216958 -0.436386,-0.463903 -0.160867,-0.692855 0.794103,-0.659342 1.275998,-1.672167 2.353381,-2.024239 0.265289,-0.08678 0.439914,-0.433211 0.6731,-0.642056 0.386292,-0.346075 0.263525,-0.642408 -0.07902,-0.90805 -1.088672,-0.846314 -2.200981,-1.662994 -3.26637,-2.53753 -0.221191,-0.181681 -0.373944,-0.280459 -0.567266,-0.280459 -0.136525,0 -0.293511,0.04939 -0.508706,0.15487 -0.647347,0.315736 -1.025172,0.846666 -1.551164,1.24213 -0.2286,0.171803 -0.500591,0.309034 -0.774347,0.388761 -0.03034,0.0088 -0.06526,0.01305 -0.102305,0.01305 -0.140406,0 -0.313267,-0.05891 -0.38347,-0.145697 -0.08008,-0.09913 -0.07338,-0.390172 0.01482,-0.483658 0.643819,-0.684036 1.27635,-1.388534 1.991783,-1.992842 1.100314,-0.9288638 2.272594,-1.7712971 3.393722,-2.6765249 0.148872,-0.1202972 0.242359,-0.2215444 0.365478,-0.2215444"
       style="fill:#a9ab1d;fill-opacity:1;fill-rule:nonzero;stroke:none;stroke-width:0.353;stroke-opacity:1;stroke-miterlimit:10;stroke-dasharray:none"
       id="path296" />
  </g>
</svg>
