<?xml version="1.0" encoding="UTF-8" standalone="no"?>
<!-- Created with Inkscape (http://www.inkscape.org/) -->

<svg
   width="150"
   height="150"
   viewBox="0 0 39.687499 39.687501"
   version="1.1"
   id="svg2868"
   inkscape:version="1.1.1 (3bf5ae0d25, 2021-09-20)"
   sodipodi:docname="4-gold.svg"
   xmlns:inkscape="http://www.inkscape.org/namespaces/inkscape"
   xmlns:sodipodi="http://sodipodi.sourceforge.net/DTD/sodipodi-0.dtd"
   xmlns="http://www.w3.org/2000/svg"
   xmlns:svg="http://www.w3.org/2000/svg">
  <sodipodi:namedview
     id="namedview2870"
     pagecolor="#ffffff"
     bordercolor="#666666"
     borderopacity="1.0"
     inkscape:pageshadow="2"
     inkscape:pageopacity="0.0"
     inkscape:pagecheckerboard="true"
     inkscape:document-units="mm"
     showgrid="false"
     units="px"
     inkscape:zoom="1"
     inkscape:cx="-288.5"
     inkscape:cy="313"
     inkscape:window-width="1920"
     inkscape:window-height="1029"
     inkscape:window-x="0"
     inkscape:window-y="27"
     inkscape:window-maximized="1"
     inkscape:current-layer="layer1" />
  <defs
     id="defs2865" />
  <g
     inkscape:label="Layer 1"
     inkscape:groupmode="layer"
     id="layer1">
    <path
       d="m 34.721201,24.153495 c -0.122767,-0.06526 -0.258233,-0.131586 -0.388408,-0.207433 -0.567973,-0.3302 -1.128536,-0.674864 -1.704623,-0.990953 -0.325966,-0.179564 -0.582436,-0.478367 -0.966611,-0.562681 -0.02399,-0.0053 -0.0515,-0.201083 -0.0194,-0.222955 0.308327,-0.21202 0.618419,-0.424745 0.948266,-0.599722 0.680861,-0.362303 1.356078,-0.730603 1.966736,-1.204736 0.113595,-0.08819 0.179917,-0.06562 0.295275,0.0042 0.805392,0.491067 1.618545,0.968375 2.429228,1.450269 0.09454,0.05609 0.189089,0.111478 0.282575,0.169334 0.121356,0.07514 0.241653,0.152752 0.362303,0.229305 -0.118181,0.111478 -0.219781,0.252589 -0.357364,0.329495 -0.824089,0.461786 -1.642181,0.932038 -2.426406,1.4605 -0.105127,0.07055 -0.246944,0.08714 -0.421569,0.145344"
       style="fill:#a9ab1d;fill-opacity:1;fill-rule:nonzero;stroke:none;stroke-width:0.352778"
       id="path304" />
    <path
       d="M 37.481581,23.913042 V 37.481581 H 2.2059207 V 2.2059203 H 37.481581 V 15.773048"
       style="fill:none;stroke:#a9ab1d;stroke-width:1.00013;stroke-linecap:butt;stroke-linejoin:miter;stroke-miterlimit:10;stroke-dasharray:none;stroke-opacity:1"
       id="path300" />
    <path
       d="m 34.721201,19.302447 c -0.122767,-0.06526 -0.258233,-0.131586 -0.388408,-0.207433 -0.567973,-0.3302 -1.128536,-0.674864 -1.704623,-0.990953 -0.325966,-0.179564 -0.582436,-0.478367 -0.966611,-0.562681 -0.02399,-0.0053 -0.0515,-0.201083 -0.0194,-0.222955 0.308327,-0.21202 0.618419,-0.424745 0.948266,-0.599722 0.680861,-0.362303 1.356078,-0.730603 1.966736,-1.204736 0.113595,-0.08819 0.179917,-0.06562 0.295275,0.0042 0.805392,0.491067 1.618545,0.968375 2.429228,1.450269 0.09454,0.05609 0.189089,0.111478 0.282575,0.169334 0.121356,0.07514 0.241653,0.152752 0.362303,0.229305 -0.118181,0.111478 -0.219781,0.252589 -0.357364,0.329495 -0.824089,0.461786 -1.642181,0.932038 -2.426406,1.4605 -0.105127,0.07056 -0.246944,0.08714 -0.421569,0.145344"
       style="fill:#a9ab1d;fill-opacity:1;fill-rule:nonzero;stroke:none;stroke-width:0.352778"
       id="path308" />
    <path
       d="m 18.482593,32.620867 c -0.05433,0 -0.370064,-0.05539 -0.378178,-0.200731 -0.01905,-0.348897 -0.01764,-0.703086 -0.01623,-1.04528 l 0.0028,-1.734961 c 0.0025,-1.258358 0.0049,-2.559403 -0.01023,-3.838575 -0.0035,-0.321733 -0.05503,-0.651933 -0.104775,-0.971197 -0.01517,-0.09842 -0.03069,-0.197556 -0.0448,-0.296334 l -0.191558,0.127 c -0.285397,0.188031 -0.570794,0.376414 -0.851958,0.570442 -0.05045,0.03457 -0.09525,0.08396 -0.142523,0.136172 -0.0381,0.04198 -0.0762,0.08361 -0.11818,0.120297 -0.135114,0.118887 -0.274814,0.269875 -0.409575,0.415573 -0.331964,0.358775 -0.674864,0.729191 -1.044222,0.732719 -0.313267,0 -0.578556,-0.280105 -0.860072,-0.576792 -0.190148,-0.200377 -0.386998,-0.407811 -0.594431,-0.523169 -0.691092,-0.384528 -1.2446,-0.921455 -1.779411,-1.441097 -0.203906,-0.197908 -0.408164,-0.395817 -0.619831,-0.585964 -0.357364,-0.321028 -0.429683,-0.653697 -0.428272,-1.0541 0.0067,-1.917347 0.0071,-3.834694 0.0071,-5.751689 3.53e-4,-1.737077 3.53e-4,-3.474155 0.0053,-5.211233 0.0025,-0.779639 0.449439,-1.307394 1.366661,-1.6136055 0.123473,-0.041275 0.249414,-0.076906 0.375709,-0.1121833 0.274108,-0.077611 0.5334,-0.1502834 0.764469,-0.2779889 0.383822,-0.2123722 0.754592,-0.4691944 1.113014,-0.7179028 0.155222,-0.10795 0.310445,-0.2155472 0.467783,-0.3203222 l 0.15487,0.076906 c 0.01235,0.1933222 0.02752,0.3869972 0.04269,0.5803194 0.03246,0.4148667 0.06632,0.8438444 0.06773,1.2678833 l 0.0053,1.314802 c 0.01129,2.605264 0.02258,5.299075 -0.02011,7.948436 -0.01341,0.847725 0.221897,1.404409 0.7874,1.860903 0.188736,0.152047 0.356305,0.331258 0.518583,0.504472 0.185914,0.198261 0.361244,0.385234 0.566208,0.537986 0.153811,0.113948 0.409222,0.187678 0.650875,0.187678 0.04304,0 0.08467,-0.0021 0.124531,-0.0071 0.09243,-0.01094 0.153458,-0.0374 0.187678,-0.08079 0.06068,-0.07867 0.04163,-0.224719 0.02364,-0.36583 -0.0095,-0.07267 -0.0187,-0.143228 -0.01835,-0.206375 0.0028,-0.907345 0.0092,-1.815042 0.01552,-2.722386 0.01905,-2.700514 0.03916,-5.493103 -0.04833,-8.235597 -0.04092,-1.2943414 0.461433,-2.0778609 1.68028,-2.6204331 0.111478,-0.049742 0.222956,-0.098072 0.334787,-0.1464027 0.649816,-0.2811639 1.321152,-0.5718528 1.838324,-1.0911417 l 0.07091,-0.029281 h 0.378178 l 0.100188,0.099836 V 9.988361 c 7.06e-4,2.828925 0.0011,5.658203 -0.0032,8.487128 -3.52e-4,0.09349 -7.05e-4,0.377472 0.04551,0.414161 0.0261,-7.06e-4 0.109008,-0.02222 0.337608,-0.222603 0.09455,-0.08255 0.233892,-0.121003 0.438856,-0.121003 0.123119,0 0.256469,0.01376 0.382058,0.02716 0.05539,0.0056 0.109008,0.01164 0.159456,0.01587 0.177094,0.01482 0.454377,0.137936 0.504472,0.305153 0.05715,0.190853 -0.07091,0.448028 -0.171097,0.574675 -0.03457,0.04374 -0.06985,0.09066 -0.105834,0.137936 -0.171097,0.228247 -0.365478,0.486128 -0.614539,0.547864 -0.935566,0.231422 -0.99695,0.832908 -0.98425,1.724025 0.01411,0.993069 0.01094,2.003425 0.0081,2.979914 -0.0035,1.253419 -0.0074,2.549525 0.0247,3.822347 0.01623,0.642055 -0.204611,1.107369 -0.716492,1.508125 -0.910519,0.712611 -1.887714,1.453444 -3.167944,2.401005 -0.02752,0.02081 -0.0628,0.03069 -0.106892,0.03069"
       style="fill:#a9ab1d;fill-opacity:1;fill-rule:nonzero;stroke:none;stroke-width:0.352778"
       id="path312" />
  </g>
</svg>
