<?xml version="1.0" encoding="UTF-8" standalone="no"?>
<!-- Created with Inkscape (http://www.inkscape.org/) -->

<svg
   width="150"
   height="150"
   viewBox="0 0 39.687499 39.687501"
   version="1.1"
   id="svg2868"
   inkscape:version="1.1.1 (3bf5ae0d25, 2021-09-20)"
   sodipodi:docname="4.svg"
   xmlns:inkscape="http://www.inkscape.org/namespaces/inkscape"
   xmlns:sodipodi="http://sodipodi.sourceforge.net/DTD/sodipodi-0.dtd"
   xmlns="http://www.w3.org/2000/svg"
   xmlns:svg="http://www.w3.org/2000/svg">
  <sodipodi:namedview
     id="namedview2870"
     pagecolor="#ffffff"
     bordercolor="#666666"
     borderopacity="1.0"
     inkscape:pageshadow="2"
     inkscape:pageopacity="0.0"
     inkscape:pagecheckerboard="true"
     inkscape:document-units="mm"
     showgrid="false"
     units="px"
     inkscape:zoom="1"
     inkscape:cx="-91.5"
     inkscape:cy="313"
     inkscape:window-width="1920"
     inkscape:window-height="1029"
     inkscape:window-x="0"
     inkscape:window-y="27"
     inkscape:window-maximized="1"
     inkscape:current-layer="layer1" />
  <defs
     id="defs2865" />
  <g
     inkscape:label="Layer 1"
     inkscape:groupmode="layer"
     id="layer1">
    <g
       id="g3101"
       transform="matrix(0.35277777,0,0,-0.35277777,18.482593,32.620867)">
      <path
         d="m 0,0 c -0.348,0.185 -0.732,0.373 -1.101,0.588 -1.61,0.936 -3.199,1.913 -4.832,2.809 -0.924,0.509 -1.651,1.356 -2.74,1.595 -0.068,0.015 -0.146,0.57 -0.055,0.632 0.874,0.601 1.753,1.204 2.688,1.7 1.93,1.027 3.844,2.071 5.575,3.415 0.322,0.25 0.51,0.186 0.837,-0.012 C 2.655,9.335 4.96,7.982 7.258,6.616 7.526,6.457 7.794,6.3 8.059,6.136 8.403,5.923 8.744,5.703 9.086,5.486 8.751,5.17 8.463,4.77 8.073,4.552 5.737,3.243 3.418,1.91 1.195,0.412 0.897,0.212 0.495,0.165 0,0"
         style="fill:#ffffff;fill-opacity:1;fill-rule:nonzero;stroke:none"
         id="path304"
         transform="translate(46.030702,24.002)" />
      <path
         d="M 0,0 V -38.462 H -99.994 V 61.532 H 0 V 23.074"
         style="fill:none;stroke:#ffffff;stroke-width:2.835;stroke-linecap:butt;stroke-linejoin:miter;stroke-miterlimit:10;stroke-dasharray:none;stroke-opacity:1"
         id="path300"
         transform="translate(53.855399,24.6836)" />
      <path
         d="m 0,0 c -0.348,0.185 -0.732,0.373 -1.101,0.588 -1.61,0.936 -3.199,1.913 -4.832,2.809 -0.924,0.509 -1.651,1.356 -2.74,1.595 -0.068,0.015 -0.146,0.57 -0.055,0.632 0.874,0.601 1.753,1.204 2.688,1.7 1.93,1.027 3.844,2.071 5.575,3.415 0.322,0.25 0.51,0.186 0.837,-0.012 C 2.655,9.335 4.96,7.982 7.258,6.616 7.526,6.457 7.794,6.3 8.059,6.136 8.403,5.923 8.744,5.703 9.086,5.486 8.751,5.17 8.463,4.77 8.073,4.552 5.737,3.243 3.418,1.91 1.195,0.412 0.897,0.212 0.495,0.165 0,0"
         style="fill:#ffffff;fill-opacity:1;fill-rule:nonzero;stroke:none"
         id="path308"
         transform="translate(46.030702,37.753003)" />
      <path
         d="m 0,0 c -0.154,0 -1.049,0.157 -1.072,0.569 -0.054,0.989 -0.05,1.993 -0.046,2.963 L -1.11,8.45 c 0.007,3.567 0.014,7.255 -0.029,10.881 -0.01,0.912 -0.156,1.848 -0.297,2.753 -0.043,0.279 -0.087,0.56 -0.127,0.84 l -0.543,-0.36 c -0.809,-0.533 -1.618,-1.067 -2.415,-1.617 -0.143,-0.098 -0.27,-0.238 -0.404,-0.386 -0.108,-0.119 -0.216,-0.237 -0.335,-0.341 -0.383,-0.337 -0.779,-0.765 -1.161,-1.178 -0.941,-1.017 -1.913,-2.067 -2.96,-2.077 -0.888,0 -1.64,0.794 -2.438,1.635 -0.539,0.568 -1.097,1.156 -1.685,1.483 -1.959,1.09 -3.528,2.612 -5.044,4.085 -0.578,0.561 -1.157,1.122 -1.757,1.661 -1.013,0.91 -1.218,1.853 -1.214,2.988 0.019,5.435 0.02,10.87 0.02,16.304 10e-4,4.924 10e-4,9.848 0.015,14.772 0.007,2.21 1.274,3.706 3.874,4.574 0.35,0.117 0.707,0.218 1.065,0.318 0.777,0.22 1.512,0.426 2.167,0.788 1.088,0.602 2.139,1.33 3.155,2.035 0.44,0.306 0.88,0.611 1.326,0.908 l 0.439,-0.218 c 0.035,-0.548 0.078,-1.097 0.121,-1.645 0.092,-1.176 0.188,-2.392 0.192,-3.594 l 0.015,-3.727 c 0.032,-7.385 0.064,-15.021 -0.057,-22.531 -0.038,-2.403 0.629,-3.981 2.232,-5.275 0.535,-0.431 1.01,-0.939 1.47,-1.43 0.527,-0.562 1.024,-1.092 1.605,-1.525 0.436,-0.323 1.16,-0.532 1.845,-0.532 0.122,0 0.24,0.006 0.353,0.02 0.262,0.031 0.435,0.106 0.532,0.229 0.172,0.223 0.118,0.637 0.067,1.037 -0.027,0.206 -0.053,0.406 -0.052,0.585 0.008,2.572 0.026,5.145 0.044,7.717 0.054,7.655 0.111,15.571 -0.137,23.345 -0.116,3.669 1.308,5.89 4.763,7.428 0.316,0.141 0.632,0.278 0.949,0.415 1.842,0.797 3.745,1.621 5.211,3.093 l 0.201,0.083 h 1.072 l 0.284,-0.283 v -7.553 c 0.002,-8.019 0.003,-16.039 -0.009,-24.058 -10e-4,-0.265 -0.002,-1.07 0.129,-1.174 0.074,0.002 0.309,0.063 0.957,0.631 0.268,0.234 0.663,0.343 1.244,0.343 0.349,0 0.727,-0.039 1.083,-0.077 0.157,-0.016 0.309,-0.033 0.452,-0.045 0.502,-0.042 1.288,-0.391 1.43,-0.865 0.162,-0.541 -0.201,-1.27 -0.485,-1.629 -0.098,-0.124 -0.198,-0.257 -0.3,-0.391 -0.485,-0.647 -1.036,-1.378 -1.742,-1.553 -2.652,-0.656 -2.826,-2.361 -2.79,-4.887 0.04,-2.815 0.031,-5.679 0.023,-8.447 -0.01,-3.553 -0.021,-7.227 0.07,-10.835 C 11.36,9.348 10.734,8.029 9.283,6.893 6.702,4.873 3.932,2.773 0.303,0.087 0.225,0.028 0.125,0 0,0"
         style="fill:#ffffff;fill-opacity:1;fill-rule:nonzero;stroke:none"
         id="path312" />
    </g>
  </g>
</svg>
