<?xml version="1.0" encoding="UTF-8" standalone="no"?>
<!-- Created with Inkscape (http://www.inkscape.org/) -->

<svg
   width="150"
   height="150"
   viewBox="0 0 39.687499 39.687501"
   version="1.1"
   id="svg3275"
   inkscape:version="1.1.1 (3bf5ae0d25, 2021-09-20)"
   sodipodi:docname="5-gold.svg"
   xmlns:inkscape="http://www.inkscape.org/namespaces/inkscape"
   xmlns:sodipodi="http://sodipodi.sourceforge.net/DTD/sodipodi-0.dtd"
   xmlns="http://www.w3.org/2000/svg"
   xmlns:svg="http://www.w3.org/2000/svg">
  <sodipodi:namedview
     id="namedview3277"
     pagecolor="#ffffff"
     bordercolor="#666666"
     borderopacity="1.0"
     inkscape:pageshadow="2"
     inkscape:pageopacity="0.0"
     inkscape:pagecheckerboard="true"
     inkscape:document-units="mm"
     showgrid="false"
     units="px"
     inkscape:zoom="0.64052329"
     inkscape:cx="-398.8926"
     inkscape:cy="560.47923"
     inkscape:window-width="1920"
     inkscape:window-height="1029"
     inkscape:window-x="0"
     inkscape:window-y="27"
     inkscape:window-maximized="1"
     inkscape:current-layer="layer1" />
  <defs
     id="defs3272" />
  <g
     inkscape:label="Layer 1"
     inkscape:groupmode="layer"
     id="layer1">
    <path
       d="M 37.48158,23.913042 V 37.481581 H 2.2059197 V 2.2059203 H 37.48158 V 15.773048"
       style="fill:none;stroke:#a9ab1d;stroke-width:1.00013;stroke-linecap:butt;stroke-linejoin:miter;stroke-miterlimit:10;stroke-dasharray:none;stroke-opacity:1"
       id="path320" />
    <path
       d="m 34.721201,24.153495 c -0.122767,-0.06526 -0.258233,-0.131586 -0.388408,-0.207433 -0.567973,-0.3302 -1.128536,-0.674864 -1.704623,-0.990953 -0.325966,-0.179564 -0.582436,-0.478367 -0.966258,-0.562681 -0.02434,-0.0053 -0.05186,-0.201083 -0.01975,-0.222955 0.308327,-0.21202 0.618772,-0.424745 0.948266,-0.599722 0.680861,-0.362303 1.356078,-0.730603 1.966736,-1.204736 0.113595,-0.08819 0.179917,-0.06562 0.295628,0.0042 0.805039,0.491067 1.618545,0.968375 2.429228,1.450269 0.09419,0.05609 0.188736,0.111478 0.282222,0.169334 0.121356,0.07514 0.241653,0.152752 0.362656,0.229305 -0.118181,0.111478 -0.220134,0.252589 -0.357364,0.329495 -0.824089,0.461786 -1.642534,0.932038 -2.426406,1.4605 -0.10548,0.07055 -0.247297,0.08714 -0.421922,0.145344"
       style="fill:#a9ab1d;fill-opacity:1;fill-rule:nonzero;stroke:none;stroke-width:0.352778"
       id="path324" />
    <path
       d="m 34.721201,19.302447 c -0.122767,-0.06526 -0.258233,-0.131586 -0.388408,-0.207433 -0.567973,-0.3302 -1.128536,-0.674864 -1.704623,-0.990953 -0.325966,-0.179564 -0.582436,-0.478367 -0.966258,-0.562681 -0.02434,-0.0053 -0.05186,-0.201083 -0.01975,-0.222955 0.308327,-0.21202 0.618772,-0.424745 0.948266,-0.599722 0.680861,-0.362303 1.356078,-0.730603 1.966736,-1.204736 0.113595,-0.08819 0.179917,-0.06562 0.295628,0.0042 0.805039,0.491067 1.618545,0.968375 2.429228,1.450269 0.09419,0.05609 0.188736,0.111478 0.282222,0.169334 0.121356,0.07514 0.241653,0.152752 0.362656,0.229305 -0.118181,0.111478 -0.220134,0.252589 -0.357364,0.329495 -0.824089,0.461786 -1.642534,0.932038 -2.426406,1.4605 -0.10548,0.07056 -0.247297,0.08714 -0.421922,0.145344"
       style="fill:#a9ab1d;fill-opacity:1;fill-rule:nonzero;stroke:none;stroke-width:0.352778"
       id="path328" />
    <path
       d="m 18.862534,32.770727 c -0.121003,0 -0.214842,-0.02364 -0.287514,-0.07338 -0.429683,-0.291394 -0.845255,-0.612422 -1.247069,-0.923219 -0.138995,-0.107597 -0.277989,-0.215195 -0.417689,-0.321381 -0.507647,-0.386291 -0.989189,-0.814211 -1.454856,-1.228372 -0.73413,-0.651933 -1.492955,-1.326797 -2.353027,-1.833033 -0.155575,-0.09172 -0.215548,-0.303742 -0.238831,-0.465667 -0.02081,-0.143933 -0.03457,-0.407105 0.104775,-0.555625 0.492831,-0.526697 1.011061,-1.044222 1.512006,-1.544461 0.371827,-0.370769 0.744008,-0.742244 1.10878,-1.120069 0.137231,-0.142523 0.271286,-0.211667 0.409575,-0.211667 0.205317,0 0.324908,0.145344 0.404283,0.241653 0.02081,0.02575 0.05292,0.06421 0.06738,0.07408 0.136525,0.09207 0.271639,0.186972 0.407105,0.28187 0.263173,0.184502 0.534812,0.375355 0.810684,0.540102 0.56268,0.335845 1.044222,0.773995 1.509536,1.197681 0.560211,0.510116 1.089378,0.991658 1.75013,1.312686 0.03104,0.01517 0.06103,0.0314 0.09031,0.04798 0.02081,-2.524478 0.01799,-4.751564 -0.0085,-6.806847 -0.0028,-0.232481 -0.143228,-0.52952 -0.249414,-0.590198 -0.990953,-0.564444 -1.838325,-1.319036 -2.658181,-2.049638 -0.750358,-0.667809 -1.526116,-1.3589 -2.396066,-1.884187 -0.506589,-0.306211 -0.817386,-0.891469 -0.927453,-1.129241 -0.161572,-0.34925 0.03246,-0.664281 0.174272,-0.893939 0.05362,-0.08784 0.121003,-0.19685 0.127,-0.250825 0.07338,-0.640997 0.349956,-1.184628 0.617361,-1.710267 0.23495,-0.46108 0.456495,-0.896408 0.52952,-1.369836 0.168628,-1.0922 0.517878,-2.1085525 0.86995,-3.0444719 0.270933,-0.7200194 0.66428,-1.3867694 1.694391,-1.3867694 0.09243,0 0.190148,0.00564 0.293864,0.016228 0.376061,0.039864 0.782814,0.058561 1.280231,0.058561 v 0 c 0.33655,0 0.673453,-0.00811 1.010355,-0.016581 0.340784,-0.00811 0.68192,-0.016933 1.02235,-0.016933 l 2.211564,0.00106 c 0.572911,0 1.145822,-7.055e-4 1.718734,-0.00247 0.28328,0 0.484716,0.08255 0.603955,0.2455333 0.127,0.1732139 0.141817,0.4046361 0.04551,0.708025 -0.05151,0.1633361 -0.121355,0.3150305 -0.188736,0.4621389 -0.05715,0.1255888 -0.115005,0.2504722 -0.158397,0.3802944 -0.22225,0.6653389 -0.436386,1.3331467 -0.650522,2.0009557 l -0.247297,0.770114 -0.230364,0.172861 c -0.300567,0.0092 -0.601134,0.01552 -0.9017,0.02187 -0.657578,0.01376 -1.337028,0.02822 -2.000603,0.07267 -0.756708,0.0508 -1.512711,0.115711 -2.268714,0.18027 -0.813505,0.0702 -1.654528,0.142169 -2.484614,0.195086 -0.247297,0.01587 -0.248355,0.02963 -0.269522,0.385939 -0.0134,0.224013 -0.122767,0.424391 -0.219075,0.601133 -0.02893,0.05292 -0.05785,0.105833 -0.08326,0.158044 -0.09878,0.204611 -0.08502,0.301273 -0.07585,0.315736 0.0025,0.0035 0.03634,0.02505 0.126648,0.02505 0.04304,0 0.09031,-0.0046 0.142169,-0.01341 0.231069,-0.0388 0.461081,-0.05856 0.683683,-0.05856 1.601964,0 2.7305,1.016706 3.821995,1.999544 l 0.183797,0.165806 c 0.904522,0.815622 1.840089,1.659467 2.920647,2.259542 0.549981,0.3048 0.800453,0.779638 0.788106,1.493308 -0.0067,0.394053 -0.01623,0.788458 -0.02575,1.182864 -0.03704,1.542697 -0.07514,3.137605 0.05503,4.685241 0.102659,1.216025 -0.421922,2.180167 -1.516591,2.786945 -0.407459,0.22613 -0.718962,0.522464 -1.048809,0.836436 -0.210255,0.200025 -0.427919,0.407105 -0.670983,0.592314 -0.176036,0.134408 -0.36195,0.261408 -0.54857,0.388761 -0.446969,0.305505 -0.869244,0.593725 -1.150761,0.97543 -0.210961,0.286103 -0.501297,0.445911 -0.782108,0.600428 -0.411339,0.226131 -0.667103,0.384528 -0.735189,0.769761 -0.05045,0.282928 -0.508353,0.297039 -0.599722,0.297039"
       style="fill:#a9ab1d;fill-opacity:1;fill-rule:nonzero;stroke:none;stroke-width:0.352778"
       id="path332" />
  </g>
</svg>
