<?xml version="1.0" encoding="UTF-8" standalone="no"?>
<!-- Created with Inkscape (http://www.inkscape.org/) -->

<svg
   width="150"
   height="150"
   viewBox="0 0 39.687499 39.687501"
   version="1.1"
   id="svg3275"
   inkscape:version="1.1.1 (3bf5ae0d25, 2021-09-20)"
   sodipodi:docname="5.svg"
   xmlns:inkscape="http://www.inkscape.org/namespaces/inkscape"
   xmlns:sodipodi="http://sodipodi.sourceforge.net/DTD/sodipodi-0.dtd"
   xmlns="http://www.w3.org/2000/svg"
   xmlns:svg="http://www.w3.org/2000/svg">
  <sodipodi:namedview
     id="namedview3277"
     pagecolor="#ffffff"
     bordercolor="#666666"
     borderopacity="1.0"
     inkscape:pageshadow="2"
     inkscape:pageopacity="0.0"
     inkscape:pagecheckerboard="true"
     inkscape:document-units="mm"
     showgrid="false"
     units="px"
     inkscape:zoom="0.64052329"
     inkscape:cx="-91.331574"
     inkscape:cy="560.47923"
     inkscape:window-width="1920"
     inkscape:window-height="1029"
     inkscape:window-x="0"
     inkscape:window-y="27"
     inkscape:window-maximized="1"
     inkscape:current-layer="layer1" />
  <defs
     id="defs3272" />
  <g
     inkscape:label="Layer 1"
     inkscape:groupmode="layer"
     id="layer1">
    <g
       id="g3257"
       transform="matrix(0.35277777,0,0,-0.35277777,18.862534,32.770727)">
      <path
         d="M 0,0 V -38.462 H -99.994 V 61.532 H 0 V 23.074"
         style="fill:none;stroke:#ffffff;stroke-width:2.835;stroke-linecap:butt;stroke-linejoin:miter;stroke-miterlimit:10;stroke-dasharray:none;stroke-opacity:1"
         id="path320"
         transform="translate(52.7784,25.1084)" />
      <path
         d="m 0,0 c -0.348,0.185 -0.732,0.373 -1.101,0.588 -1.61,0.936 -3.199,1.913 -4.832,2.809 -0.924,0.509 -1.651,1.356 -2.739,1.595 -0.069,0.015 -0.147,0.57 -0.056,0.632 0.874,0.601 1.754,1.204 2.688,1.7 1.93,1.027 3.844,2.071 5.575,3.415 0.322,0.25 0.51,0.186 0.838,-0.012 C 2.655,9.335 4.961,7.982 7.259,6.616 7.526,6.457 7.794,6.3 8.059,6.136 8.403,5.923 8.744,5.703 9.087,5.486 8.752,5.17 8.463,4.77 8.074,4.552 5.738,3.243 3.418,1.91 1.196,0.412 0.897,0.212 0.495,0.165 0,0"
         style="fill:#ffffff;fill-opacity:1;fill-rule:nonzero;stroke:none"
         id="path324"
         transform="translate(44.953702,24.4268)" />
      <path
         d="m 0,0 c -0.348,0.185 -0.732,0.373 -1.101,0.588 -1.61,0.936 -3.199,1.913 -4.832,2.809 -0.924,0.509 -1.651,1.356 -2.739,1.595 -0.069,0.015 -0.147,0.57 -0.056,0.632 0.874,0.601 1.754,1.204 2.688,1.7 1.93,1.027 3.844,2.071 5.575,3.415 0.322,0.25 0.51,0.186 0.838,-0.012 C 2.655,9.335 4.961,7.982 7.259,6.616 7.526,6.457 7.794,6.3 8.059,6.136 8.403,5.923 8.744,5.703 9.087,5.486 8.752,5.17 8.463,4.77 8.074,4.552 5.738,3.243 3.418,1.91 1.196,0.412 0.897,0.212 0.495,0.165 0,0"
         style="fill:#ffffff;fill-opacity:1;fill-rule:nonzero;stroke:none"
         id="path328"
         transform="translate(44.953702,38.177803)" />
      <path
         d="m 0,0 c -0.343,0 -0.609,0.067 -0.815,0.208 -1.218,0.826 -2.396,1.736 -3.535,2.617 -0.394,0.305 -0.788,0.61 -1.184,0.911 -1.439,1.095 -2.804,2.308 -4.124,3.482 -2.081,1.848 -4.232,3.761 -6.67,5.196 -0.441,0.26 -0.611,0.861 -0.677,1.32 -0.059,0.408 -0.098,1.154 0.297,1.575 1.397,1.493 2.866,2.96 4.286,4.378 1.054,1.051 2.109,2.104 3.143,3.175 0.389,0.404 0.769,0.6 1.161,0.6 0.582,0 0.921,-0.412 1.146,-0.685 0.059,-0.073 0.15,-0.182 0.191,-0.21 0.387,-0.261 0.77,-0.53 1.154,-0.799 0.746,-0.523 1.516,-1.064 2.298,-1.531 1.595,-0.952 2.96,-2.194 4.279,-3.395 1.588,-1.446 3.088,-2.811 4.961,-3.721 0.088,-0.043 0.173,-0.089 0.256,-0.136 0.059,7.156 0.051,13.469 -0.024,19.295 -0.008,0.659 -0.406,1.501 -0.707,1.673 -2.809,1.6 -5.211,3.739 -7.535,5.81 -2.127,1.893 -4.326,3.852 -6.792,5.341 -1.436,0.868 -2.317,2.527 -2.629,3.201 -0.458,0.99 0.092,1.883 0.494,2.534 0.152,0.249 0.343,0.558 0.36,0.711 0.208,1.817 0.992,3.358 1.75,4.848 0.666,1.307 1.294,2.541 1.501,3.883 0.478,3.096 1.468,5.977 2.466,8.63 0.768,2.041 1.883,3.931 4.803,3.931 0.262,0 0.539,-0.016 0.833,-0.046 1.066,-0.113 2.219,-0.166 3.629,-0.166 v 0 c 0.954,0 1.909,0.023 2.864,0.047 0.966,0.023 1.933,0.048 2.898,0.048 l 6.269,-0.003 c 1.624,0 3.248,0.002 4.872,0.007 0.803,0 1.374,-0.234 1.712,-0.696 0.36,-0.491 0.402,-1.147 0.129,-2.007 -0.146,-0.463 -0.344,-0.893 -0.535,-1.31 -0.162,-0.356 -0.326,-0.71 -0.449,-1.078 -0.63,-1.886 -1.237,-3.779 -1.844,-5.672 l -0.701,-2.183 -0.653,-0.49 C 18.026,59.267 17.174,59.249 16.322,59.231 14.458,59.192 12.532,59.151 10.651,59.025 8.506,58.881 6.363,58.697 4.22,58.514 1.914,58.315 -0.47,58.111 -2.823,57.961 c -0.701,-0.045 -0.704,-0.084 -0.764,-1.094 -0.038,-0.635 -0.348,-1.203 -0.621,-1.704 -0.082,-0.15 -0.164,-0.3 -0.236,-0.448 -0.28,-0.58 -0.241,-0.854 -0.215,-0.895 0.007,-0.01 0.103,-0.071 0.359,-0.071 0.122,0 0.256,0.013 0.403,0.038 0.655,0.11 1.307,0.166 1.938,0.166 4.541,0 7.74,-2.882 10.834,-5.668 l 0.521,-0.47 c 2.564,-2.312 5.216,-4.704 8.279,-6.405 1.559,-0.864 2.269,-2.21 2.234,-4.233 -0.019,-1.117 -0.046,-2.235 -0.073,-3.353 -0.105,-4.373 -0.213,-8.894 0.156,-13.281 0.291,-3.447 -1.196,-6.18 -4.299,-7.9 C 14.538,12.002 13.655,11.162 12.72,10.272 12.124,9.705 11.507,9.118 10.818,8.593 10.319,8.212 9.792,7.852 9.263,7.491 7.996,6.625 6.799,5.808 6.001,4.726 5.403,3.915 4.58,3.462 3.784,3.024 2.618,2.383 1.893,1.934 1.7,0.842 1.557,0.04 0.259,0 0,0"
         style="fill:#ffffff;fill-opacity:1;fill-rule:nonzero;stroke:none"
         id="path332" />
    </g>
  </g>
</svg>
