<?xml version="1.0" encoding="UTF-8" standalone="no"?>
<!-- Created with Inkscape (http://www.inkscape.org/) -->

<svg
   width="150"
   height="150"
   viewBox="0 0 39.687499 39.687501"
   version="1.1"
   id="svg3376"
   inkscape:version="1.1.1 (3bf5ae0d25, 2021-09-20)"
   sodipodi:docname="6-gold.svg"
   xmlns:inkscape="http://www.inkscape.org/namespaces/inkscape"
   xmlns:sodipodi="http://sodipodi.sourceforge.net/DTD/sodipodi-0.dtd"
   xmlns="http://www.w3.org/2000/svg"
   xmlns:svg="http://www.w3.org/2000/svg">
  <sodipodi:namedview
     id="namedview3378"
     pagecolor="#ffffff"
     bordercolor="#666666"
     borderopacity="1.0"
     inkscape:pageshadow="2"
     inkscape:pageopacity="0.0"
     inkscape:pagecheckerboard="true"
     inkscape:document-units="mm"
     showgrid="false"
     units="px"
     inkscape:zoom="6.1113661"
     inkscape:cx="47.043492"
     inkscape:cy="46.634418"
     inkscape:window-width="1920"
     inkscape:window-height="1029"
     inkscape:window-x="0"
     inkscape:window-y="27"
     inkscape:window-maximized="1"
     inkscape:current-layer="layer1" />
  <defs
     id="defs3373" />
  <g
     inkscape:label="Layer 1"
     inkscape:groupmode="layer"
     id="layer1">
    <path
       d="M 37.481581,23.913042 V 37.481581 H 2.2059207 V 2.2059203 H 37.481581 V 15.773401"
       style="fill:none;stroke:#a9ab1d;stroke-width:1.00013;stroke-linecap:butt;stroke-linejoin:miter;stroke-miterlimit:10;stroke-dasharray:none;stroke-opacity:1"
       id="path206" />
    <path
       d="M 34.721201,24.153707 C 34.598434,24.088443 34.462968,24.022121 34.332793,23.946626 33.76482,23.616074 33.204257,23.27141 32.62817,22.954968 32.302204,22.775757 32.045734,22.477307 31.661912,22.39264 c -0.02434,-0.0053 -0.05186,-0.201083 -0.01975,-0.223308 0.308327,-0.211667 0.618772,-0.424392 0.948266,-0.599722 0.680861,-0.36195 1.356078,-0.73025 1.966736,-1.204383 0.113595,-0.08855 0.179917,-0.06562 0.295628,0.0046 0.805039,0.490714 1.618545,0.968022 2.429228,1.449916 0.09419,0.05574 0.188736,0.111478 0.282222,0.169334 0.121356,0.07549 0.241653,0.152752 0.362656,0.229305 -0.118181,0.111478 -0.220134,0.252589 -0.357364,0.329495 -0.824089,0.461786 -1.642534,0.931686 -2.426406,1.460147 -0.10548,0.07091 -0.247297,0.08749 -0.421922,0.145697"
       style="fill:#a9ab1d;fill-opacity:1;fill-rule:nonzero;stroke:none;stroke-width:0.352778"
       id="path210" />
    <path
       d="m 34.721201,19.302661 c -0.122767,-0.06526 -0.258233,-0.131586 -0.388408,-0.207081 -0.567973,-0.330552 -1.128536,-0.675216 -1.704623,-0.991658 -0.325966,-0.179211 -0.582436,-0.477661 -0.966258,-0.562328 -0.02434,-0.0053 -0.05186,-0.201083 -0.01975,-0.223308 0.308327,-0.211667 0.618772,-0.424392 0.948266,-0.599722 0.680861,-0.36195 1.356078,-0.73025 1.966736,-1.204383 0.113595,-0.08855 0.179917,-0.06562 0.295628,0.0046 0.805039,0.490714 1.618545,0.968022 2.429228,1.449916 0.09419,0.05574 0.188736,0.111478 0.282222,0.169334 0.121356,0.07549 0.241653,0.152752 0.362656,0.229305 -0.118181,0.111478 -0.220134,0.252589 -0.357364,0.329495 -0.824089,0.461786 -1.642534,0.931686 -2.426406,1.460147 -0.10548,0.07091 -0.247297,0.08749 -0.421922,0.145697"
       style="fill:#a9ab1d;fill-opacity:1;fill-rule:nonzero;stroke:none;stroke-width:0.352778"
       id="path214" />
    <path
       d="m 21.191432,28.503457 c -0.236714,-0.130528 -0.416278,-0.343253 -0.603956,-0.565503 -0.163336,-0.193322 -0.332669,-0.3937 -0.548922,-0.551039 -0.153458,-0.11183 -0.328436,-0.213783 -0.497416,-0.312914 -0.350662,-0.204963 -0.71367,-0.417336 -0.809625,-0.675922 -0.161573,-0.434269 -0.132998,-0.948619 -0.102659,-1.493661 0.01199,-0.213783 0.02434,-0.434975 0.02364,-0.650169 -0.0039,-1.85032 -0.0032,-3.873147 0.0021,-6.184547 0,-0.08149 0.0078,-0.131586 0.01482,-0.160514 0.0011,0.0021 0.0025,0.0042 0.0039,0.0064 0.03281,0.05256 0.06985,0.112183 0.126647,0.157339 0.23495,0.187325 0.439914,0.407458 0.65652,0.640291 0.413808,0.4445 0.84208,0.904523 1.498953,1.129948 0.293511,0.100541 0.325261,0.500591 0.318205,0.73025 -0.02928,0.946855 -0.02399,1.90888 -0.0187,2.839155 0.0021,0.367594 0.0039,0.734836 0.0039,1.102431 0,0.244475 0.0011,0.488597 0.0018,0.733072 0.0021,0.557741 0.0042,1.13418 -0.0049,1.700036 -0.0071,0.421569 -0.02858,0.851605 -0.04974,1.267883 -0.0049,0.09596 -0.0099,0.191558 -0.01446,0.287514 M 21.445785,6.5042353 v 0 c -0.213784,0 -0.409575,0.1167694 -0.599017,0.3563055 -0.578908,0.7341305 -1.335969,1.3098639 -2.06763,1.8665472 -0.462492,0.3517194 -0.940859,0.7154333 -1.377598,1.1200694 -0.162983,0.1506361 -0.325261,0.3100916 -0.488597,0.4706056 -0.527755,0.517878 -1.07315,1.053394 -1.681691,1.332442 -1.053748,0.483305 -1.131359,1.179336 -1.123245,2.038702 0.01517,1.658761 0.01235,3.345745 0.0095,4.977342 -0.0011,0.654755 -0.0021,1.309511 -0.0021,1.964267 0,0.645583 0.0011,1.291166 0.0021,1.936749 0.0032,1.763537 0.0063,3.587045 -0.01446,5.379861 -0.0053,0.465667 -0.01446,1.245659 0.68827,1.448153 0.508,0.146403 0.819502,0.491067 1.148997,0.856545 0.05821,0.06456 0.116417,0.128764 0.175683,0.192264 0.230364,0.246238 0.510117,0.398638 0.78105,0.5461 0.30727,0.167216 0.597606,0.325613 0.787753,0.60713 0.228953,0.339019 0.472017,0.503767 0.743303,0.503767 0.248355,0 0.49283,-0.140759 0.748241,-0.430036 l 0.206375,-0.235303 c 0.499181,-0.570795 1.014942,-1.160992 1.619956,-1.576211 1.022703,-0.701322 1.951919,-1.528939 2.850091,-2.329392 0.480837,-0.428272 0.9779,-0.871361 1.481314,-1.287286 0.236361,-0.195439 0.477309,-0.458964 0.472723,-0.933097 -0.02434,-2.423231 -0.02399,-4.821061 7.05e-4,-7.126464 0.0049,-0.455789 -0.206375,-0.817739 -0.551392,-0.944033 -0.389466,-0.14217 -0.672747,-0.418747 -0.973313,-0.7112 -0.214842,-0.20955 -0.436739,-0.425803 -0.701675,-0.590197 -0.268464,-0.166511 -0.515761,-0.403225 -0.754945,-0.632178 -0.347133,-0.331964 -0.705908,-0.675217 -1.134886,-0.800806 -0.08855,-0.02611 -0.176742,-0.03916 -0.262819,-0.03916 -0.445911,0 -0.756709,0.337961 -1.057275,0.664633 -0.249414,0.271286 -0.507648,0.552098 -0.833261,0.630767 -0.24765,0.05997 -0.409223,0.255058 -0.552098,0.426861 -0.09454,0.113594 -0.180622,0.217664 -0.282222,0.284339 -0.0035,-0.06562 -0.0071,-0.131233 -0.01058,-0.19685 -0.01764,-0.3302 -0.03634,-0.670983 -0.03881,-1.004711 -0.0095,-1.098903 -0.0095,-2.234142 -3.52e-4,-3.374672 0.0028,-0.378531 0.0194,-0.765175 0.03528,-1.13912 0.0035,-0.08855 0.0074,-0.176741 0.01094,-0.265289 0.14605,0.07655 0.258939,0.21202 0.383823,0.36195 0.153811,0.184503 0.312913,0.375356 0.554919,0.473781 0.338314,0.137936 0.617008,0.25153 0.816328,0.496358 0.200025,0.245181 0.401814,0.36442 0.617714,0.36442 0.198614,0 0.392641,-0.101248 0.593372,-0.309386 0.537633,-0.557037 1.168047,-1.026231 1.777647,-1.479903 C 24.06269,9.9381741 24.323746,9.6972269 24.340326,9.3980713 24.35726,9.0876269 24.105024,8.8530297 23.647118,8.4272269 23.115129,7.9326325 22.58314,7.399938 22.061735,6.8397269 21.851832,6.6139491 21.650396,6.5042353 21.445785,6.5042353 m -0.06773,22.2881467 c 0.02681,-0.613481 0.06738,-1.226961 0.07761,-1.840794 0.0134,-0.812095 0.0032,-1.624542 0.0032,-2.436636 0,-1.311981 -0.02575,-2.62502 0.01482,-3.935589 0.01305,-0.432153 -0.1143,-0.80892 -0.453319,-0.925336 -0.93592,-0.321381 -1.388181,-1.173339 -2.0955,-1.737431 -0.08079,-0.06456 -0.12947,-0.252589 -0.246239,-0.252589 -0.0381,0 -0.08361,0.02046 -0.140053,0.07161 -0.07126,0.06491 -0.08361,0.220133 -0.08396,0.333728 -0.0046,2.061986 -0.0063,4.123619 -0.0021,6.185253 0.0018,0.745066 -0.153105,1.555044 0.09172,2.212974 0.173213,0.466725 0.895702,0.730956 1.376538,1.080912 0.518231,0.377119 0.771878,1.063625 1.457325,1.243894 m 0.06773,-22.0881217 c 0.149578,0 0.303389,0.092781 0.469547,0.2716388 0.511175,0.549275 1.0414,1.082675 1.590675,1.5934972 0.833967,0.7750528 0.918633,0.8501945 -0.181681,1.6689917 -0.633588,0.471664 -1.2573,0.936978 -1.801988,1.501422 -0.162631,0.168981 -0.309739,0.248356 -0.449439,0.248356 -0.159103,0 -0.308681,-0.101953 -0.462492,-0.291042 -0.235303,-0.288572 -0.551039,-0.414161 -0.896056,-0.554567 -0.459316,-0.187325 -0.60713,-0.854075 -1.204383,-0.912283 -0.0194,0.554567 -0.05186,1.109486 -0.05609,1.664406 -0.0092,1.125713 -0.0092,2.25178 3.52e-4,3.377847 0.0039,0.491419 0.04057,0.982839 0.06279,1.473905 0.52458,-0.05045 0.661811,-0.692503 1.067858,-0.790575 0.793044,-0.192264 1.147939,-1.290108 1.843617,-1.290108 0.06562,0 0.134055,0.0099 0.206375,0.03104 0.659341,0.193323 1.158875,0.988131 1.840794,1.411111 0.601486,0.372887 0.984603,1.053395 1.711678,1.319389 0.261055,0.0956 0.424391,0.376061 0.420158,0.753534 -0.02575,2.377016 -0.02469,4.754386 -7.05e-4,7.13105 0.0035,0.369358 -0.160867,0.579261 -0.40005,0.776816 -1.444625,1.194153 -2.758723,2.537178 -4.316942,3.606095 -0.710142,0.486833 -1.285169,1.188508 -1.863372,1.843969 -0.216959,0.246239 -0.414161,0.362303 -0.598311,0.362303 -0.20567,0 -0.394759,-0.144992 -0.577497,-0.415573 -0.394053,-0.583847 -1.12395,-0.681566 -1.588559,-1.177924 -0.402872,-0.430742 -0.756708,-0.914753 -1.414991,-1.104548 -0.521406,-0.14993 -0.550334,-0.716491 -0.543984,-1.253772 0.02822,-2.439105 0.01235,-4.878916 0.01235,-7.318727 0,-2.314223 0.01376,-4.62915 -0.0074,-6.943373 -0.0078,-0.8255 0.04833,-1.415697 1.006828,-1.855258 0.83185,-0.381353 1.522942,-1.190272 2.2225,-1.837972 1.125714,-1.0424583 2.504369,-1.7899944 3.466747,-3.0095472 0.149225,-0.1890889 0.293511,-0.2801055 0.441678,-0.2801055"
       style="fill:#ffffff;fill-opacity:1;fill-rule:nonzero;stroke:none;stroke-width:0.352778"
       id="path222" />
    <path
       style="fill:#a9ab1d;stroke-width:0.19005;stop-color:#000000;fill-opacity:1"
       d="m 80.988244,24.351338 c -1.812309,0.197187 -2.711539,2.052027 -3.938598,3.160712 -3.988765,4.002875 -8.894079,6.94338 -12.898739,10.934201 -2.30179,2.176722 -4.598869,4.467885 -7.507603,5.831918 -1.9531,0.997548 -3.361082,2.975976 -3.457141,5.191833 -0.200575,12.80556 -0.0653,25.6147 -0.08336,38.421664 0.03072,6.787526 -0.02454,13.584994 0.05977,20.366324 0.391529,1.35565 1.262278,2.70423 2.710344,3.08638 3.207256,1.10367 4.751013,4.56951 7.799447,5.9506 1.569181,0.75527 2.771196,2.00793 3.913823,3.28374 0.94825,1.10319 2.650688,1.28351 3.802967,0.38561 2.599036,-2.174 4.449638,-5.13355 7.190589,-7.16604 3.971364,-2.8806 7.773506,-5.98488 11.409124,-9.27937 2.285347,-2.14168 4.846713,-3.9967 6.978288,-6.296433 1.186875,-1.26801 0.633012,-3.075594 0.760376,-4.632609 -0.0341,-8.289604 0.136719,-16.582332 -0.06012,-24.870004 0.01649,-1.329365 -0.299138,-2.836622 -1.607807,-3.487959 -1.721859,-0.745009 -3.133656,-1.994605 -4.471251,-3.284927 -1.931913,-1.719257 -4.091291,-3.162777 -5.941427,-4.980429 -1.494639,-1.360016 -3.368933,-2.908325 -5.543978,-2.38512 -2.014974,0.675993 -3.203551,2.621574 -4.834599,3.875024 -0.895206,0.875625 -2.294025,0.9152 -3.079599,1.941686 -0.429474,0.426874 -0.813306,0.899821 -1.280918,1.287595 -0.224024,-7.116416 -0.238825,-14.372792 -0.0153,-21.523527 1.390183,1.218115 2.533389,2.849413 4.4003,3.370058 1.666569,0.665575 2.589744,2.826697 4.565563,2.730157 1.839415,-0.304805 2.874703,-2.073726 4.272878,-3.128844 2.39954,-2.171914 5.295678,-3.780261 7.479064,-6.185349 0.853664,-0.929523 0.798782,-2.468618 -0.214363,-3.259433 -2.943005,-3.118594 -5.944566,-6.206422 -9.200823,-8.999145 -0.344128,-0.251964 -0.787067,-0.342105 -1.20691,-0.338313 z M 70.072625,67.333287 c -0.0812,-0.244571 -0.07075,-0.347551 0,0 z m 1.012159,1.243359 c 2.224631,2.178656 4.255236,4.681971 6.996633,6.23682 0.890236,0.318192 2.075942,0.772739 1.971456,1.93167 -0.04079,10.043161 0.102602,20.090395 -0.151628,30.130764 0.05104,0.8801 -0.781121,-0.3962 -1.110926,-0.59928 -1.471544,-1.5679 -2.924989,-3.21192 -4.879116,-4.19553 -1.017163,-0.69223 -2.197604,-1.31964 -2.899035,-2.349 -0.481032,-2.812383 -0.22708,-5.699088 -0.305632,-8.542138 0.02279,-7.621638 0.0048,-15.268284 0.130354,-22.874276 0.08263,0.08699 0.165263,0.17398 0.247894,0.26097 z"
       id="path4726"
       transform="scale(0.26458333)" />
  </g>
</svg>
