<?xml version="1.0" encoding="UTF-8" standalone="no"?>
<!-- Created with Inkscape (http://www.inkscape.org/) -->

<svg
   width="150"
   height="150"
   viewBox="0 0 39.687499 39.687501"
   version="1.1"
   id="svg601"
   inkscape:version="1.1.1 (3bf5ae0d25, 2021-09-20)"
   sodipodi:docname="7.svg"
   xmlns:inkscape="http://www.inkscape.org/namespaces/inkscape"
   xmlns:sodipodi="http://sodipodi.sourceforge.net/DTD/sodipodi-0.dtd"
   xmlns="http://www.w3.org/2000/svg"
   xmlns:svg="http://www.w3.org/2000/svg">
  <sodipodi:namedview
     id="namedview603"
     pagecolor="#ffffff"
     bordercolor="#666666"
     borderopacity="1.0"
     inkscape:pageshadow="2"
     inkscape:pageopacity="0.0"
     inkscape:pagecheckerboard="true"
     inkscape:document-units="mm"
     showgrid="false"
     units="px"
     inkscape:zoom="2"
     inkscape:cx="14.75"
     inkscape:cy="125.5"
     inkscape:window-width="1920"
     inkscape:window-height="1029"
     inkscape:window-x="0"
     inkscape:window-y="27"
     inkscape:window-maximized="1"
     inkscape:current-layer="layer1" />
  <defs
     id="defs598">
    <inkscape:path-effect
       effect="fill_between_many"
       method="originald"
       linkedpaths="#path380,0,1|"
       id="path-effect661" />
  </defs>
  <g
     inkscape:label="Layer 1"
     inkscape:groupmode="layer"
     id="layer1">
    <path
       d="M 37.48158,26.117903 V 37.481581 H 2.2059197 V 2.2059202 H 37.48158 V 13.568187"
       style="fill:none;stroke:#ffffff;stroke-width:1.00013;stroke-linecap:butt;stroke-linejoin:miter;stroke-miterlimit:10;stroke-dasharray:none;stroke-opacity:1"
       id="path360" />
    <path
       d="m 34.499162,21.728148 c -0.122767,-0.06526 -0.257881,-0.131586 -0.388408,-0.207433 -0.567973,-0.3302 -1.128536,-0.674864 -1.704623,-0.991306 -0.325613,-0.179211 -0.582436,-0.478014 -0.966611,-0.562328 -0.02364,-0.0053 -0.05151,-0.201083 -0.0194,-0.223308 0.308327,-0.211667 0.618419,-0.424392 0.948266,-0.599722 0.680861,-0.36195 1.356431,-0.730603 1.966736,-1.204383 0.113595,-0.08855 0.18027,-0.06597 0.295275,0.0042 0.805392,0.490714 1.618898,0.968375 2.429581,1.450269 0.09419,0.05574 0.188736,0.111478 0.282222,0.168981 0.121356,0.07549 0.241653,0.153105 0.362656,0.229658 -0.118181,0.111125 -0.219781,0.252236 -0.357717,0.329495 -0.824089,0.461786 -1.642181,0.931686 -2.426406,1.460147 -0.105127,0.07091 -0.246944,0.08749 -0.421569,0.145697"
       style="fill:#ffffff;fill-opacity:1;fill-rule:nonzero;stroke:none;stroke-width:0.352778"
       id="path364" />
    <path
       d="m 34.499162,16.8771 c -0.122767,-0.06526 -0.257881,-0.131586 -0.388408,-0.207433 -0.567973,-0.3302 -1.128536,-0.674864 -1.704623,-0.991306 -0.325613,-0.179211 -0.582436,-0.478014 -0.966611,-0.562328 -0.02364,-0.0053 -0.05151,-0.201083 -0.0194,-0.223308 0.308327,-0.211667 0.618419,-0.424392 0.948266,-0.599722 0.680861,-0.36195 1.356431,-0.730603 1.966736,-1.204383 0.113595,-0.08855 0.18027,-0.06597 0.295275,0.0042 0.805392,0.490714 1.618898,0.968375 2.429581,1.450269 0.09419,0.05574 0.188736,0.111478 0.282222,0.168981 0.121356,0.07549 0.241653,0.153105 0.362656,0.229658 -0.118181,0.111125 -0.219781,0.252236 -0.357717,0.329495 -0.824089,0.461786 -1.642181,0.931686 -2.426406,1.460147 -0.105127,0.07091 -0.246944,0.08749 -0.421569,0.145697"
       style="fill:#ffffff;fill-opacity:1;fill-rule:nonzero;stroke:none;stroke-width:0.352778"
       id="path368" />
    <path
       d="m 34.499162,26.341491 c -0.122767,-0.06526 -0.257881,-0.131586 -0.388408,-0.207433 -0.567973,-0.3302 -1.128536,-0.674864 -1.704623,-0.990953 -0.325613,-0.179564 -0.582436,-0.478367 -0.966611,-0.562681 -0.02364,-0.0053 -0.05151,-0.201083 -0.0194,-0.222955 0.308327,-0.21202 0.618419,-0.424745 0.948266,-0.599722 0.680861,-0.362303 1.356431,-0.730603 1.966736,-1.204736 0.113595,-0.0882 0.18027,-0.06562 0.295275,0.0046 0.805392,0.490714 1.618898,0.968375 2.429581,1.449916 0.09419,0.05609 0.188736,0.111478 0.282222,0.169334 0.121356,0.07549 0.241653,0.152752 0.362656,0.229305 -0.118181,0.111478 -0.219781,0.252589 -0.357717,0.329495 -0.824089,0.461786 -1.642181,0.932038 -2.426406,1.4605 -0.105127,0.07055 -0.246944,0.08714 -0.421569,0.145344"
       style="fill:#ffffff;fill-opacity:1;fill-rule:nonzero;stroke:none;stroke-width:0.352778"
       id="path372" />
    <path
       inkscape:original-d="M 0,0"
       inkscape:path-effect="#path-effect661"
       d="m 19.712799,7.0065543 c -0.891469,0 -1.783644,0.00141 -2.675114,0.00635 h -0.0035 c -0.06279,0 -0.110066,-0.00106 -0.157338,-0.00212 -0.05045,-0.00141 -0.100189,-0.00247 -0.150284,-0.00247 -0.294569,0 -0.609247,0.041628 -0.915458,0.3429 -1.404056,1.3839472 -2.957689,2.5805694 -4.427714,3.6674777 -0.271639,0.200378 -0.475192,0.411339 -0.604661,0.62618 -0.135819,0.224367 -0.05221,0.557742 -0.01023,0.690387 0.06809,0.213783 0.393348,0.262113 0.502003,0.262113 0.01129,0 0.02223,-3.52e-4 0.03246,-0.0011 l 0.02646,-0.0011 c 0.04939,0 0.101247,0.0064 0.153811,0.0127 0.06809,0.0078 0.137231,0.01517 0.203553,0.01517 0.228247,0 0.398286,-0.09313 0.50553,-0.276225 0.267406,-0.458611 0.632884,-0.548216 1.173339,-0.548216 0.08643,0 0.173567,0.0021 0.260703,0.0042 0.09031,0.0025 0.180975,0.0042 0.270581,0.0042 l 0.05821,-3.53e-4 c 0.257528,-0.0028 0.515761,-0.0035 0.773642,-0.0035 l 0.609247,0.0011 0.6096,0.0011 1.260122,3.53e-4 h 1.260475 c 1.021997,0 2.0447,-3.53e-4 3.066697,-0.0018 0.01482,0 0.02893,0 0.04233,3.53e-4 -0.03669,0.01058 -0.07267,0.02434 -0.106187,0.04269 -0.293863,0.160514 -0.531988,0.401108 -0.763058,0.633942 l -0.02328,0.02364 c -1.283759,1.293636 -2.72662,2.475089 -4.288014,3.510844 -0.766586,0.509059 -1.086908,1.194859 -0.951794,2.038703 0.05821,0.364772 0.04339,0.739775 0.02752,1.13665 -0.01341,0.341136 -0.02752,0.694267 0.0092,1.042458 0.09807,0.937331 -0.240241,1.553281 -1.096786,1.997428 -0.336902,0.174272 -0.466372,0.708025 -0.498122,0.867481 -0.02963,0.149577 -0.110067,0.65793 0.100895,0.908049 0.05927,0.07091 0.143933,0.152048 0.269875,0.152048 0.108655,0 0.18415,-0.05927 0.263877,-0.122061 l 0.03598,-0.02752 c 0.100541,-0.07726 0.226483,-0.134761 0.360186,-0.195439 0.151694,-0.06914 0.307975,-0.140406 0.447322,-0.249414 0.03881,-0.03069 0.0695,-0.05186 0.09349,-0.06668 0.0028,0.02716 0.0056,0.06385 0.0063,0.112183 0.0035,0.183092 0.0028,0.366184 0.0021,0.549275 l -7.06e-4,0.244828 -3.53e-4,1.494014 c -3.52e-4,1.962856 -3.52e-4,3.926064 0.0032,5.888919 0,0.03492 -0.0042,0.07091 -0.0078,0.108303 -0.01729,0.166864 -0.04551,0.44697 0.246592,0.606425 0.125236,0.06773 0.250825,0.102306 0.374297,0.102306 0.220486,0 0.420159,-0.112536 0.562681,-0.317147 0.180269,-0.258939 0.460728,-0.403931 0.757766,-0.557389 0.334786,-0.172861 0.681214,-0.352073 0.921809,-0.707673 0.28575,-0.422627 0.716491,-0.681566 1.171927,-0.956027 0.145345,-0.08784 0.290689,-0.175331 0.431448,-0.268111 0.680155,-0.449439 0.758472,-1.141589 0.750711,-1.694392 -0.01588,-1.119011 -0.01199,-2.258131 -0.0085,-3.359503 0.0053,-1.51518 0.01023,-3.082219 -0.03528,-4.623505 -0.02293,-0.79375 0.232128,-1.350434 0.854075,-1.861609 0.07479,-0.06174 0.138995,-0.128411 0.200731,-0.192616 0.14605,-0.1524 0.261408,-0.272697 0.475192,-0.289983 0.198966,-0.01552 0.305858,-0.239889 0.369005,-0.407459 0.07338,-0.19438 0.315031,-1.036108 0.06032,-1.29928 -0.111125,-0.1143 -0.230364,-0.172509 -0.354189,-0.172509 -0.182033,0 -0.31503,0.12312 -0.422275,0.221898 -0.07444,0.06844 -0.151341,0.1397 -0.208139,0.1397 -0.01164,0 -0.02505,-0.0028 -0.03986,-0.0088 -0.02928,-0.01129 -0.06032,-0.01729 -0.09243,-0.01729 -0.167923,0 -0.309386,0.148167 -0.545748,0.410633 -0.04974,0.05539 -0.09807,0.109009 -0.141111,0.153106 -0.04657,0.04727 -0.08361,0.08149 -0.112183,0.105128 -3.53e-4,-0.01058 -3.53e-4,-0.02258 -7.06e-4,-0.03563 -3.52e-4,-0.212372 -0.01376,-0.431447 -0.02646,-0.643467 -0.05644,-0.940152 -0.109714,-1.828447 0.855486,-2.374194 0.66675,-0.377472 1.20262,-0.899583 1.720497,-1.404761 0.369006,-0.359128 0.717198,-0.6985 1.110898,-0.992717 l 0.373591,-0.278341 c 1.299986,-0.968023 2.644775,-1.9692058 3.808942,-3.1580668 0.02681,-0.027517 0.07796,-0.061736 0.127353,-0.095603 C 28.796474,7.8172376 29.144313,7.5808765 28.904071,7.2231599 28.77319,7.0287793 28.472977,7.0125515 28.176643,7.0125515 l -0.07338,3.528e-4 -0.06456,3.528e-4 -0.0254,-3.528e-4 c -0.929569,-0.00459 -1.859491,-0.00564 -2.789766,-0.00564 l -1.299281,3.527e-4 -1.298928,3.528e-4 -1.455914,-7.055e-4 z"
       id="path663"
       style="fill:#ffffff" />
    <path
       d="m 19.712799,7.0065543 c -0.891469,0 -1.783644,0.00141 -2.675114,0.00635 h -0.0035 c -0.06279,0 -0.110066,-0.00106 -0.157338,-0.00212 -0.05045,-0.00141 -0.100189,-0.00247 -0.150284,-0.00247 -0.294569,0 -0.609247,0.041628 -0.915458,0.3429 -1.404056,1.3839472 -2.957689,2.5805694 -4.427714,3.6674777 -0.271639,0.200378 -0.475192,0.411339 -0.604661,0.62618 -0.135819,0.224367 -0.05221,0.557742 -0.01023,0.690387 0.06809,0.213783 0.393348,0.262113 0.502003,0.262113 0.01129,0 0.02223,-3.52e-4 0.03246,-0.0011 l 0.02646,-0.0011 c 0.04939,0 0.101247,0.0064 0.153811,0.0127 0.06809,0.0078 0.137231,0.01517 0.203553,0.01517 0.228247,0 0.398286,-0.09313 0.50553,-0.276225 0.267406,-0.458611 0.632884,-0.548216 1.173339,-0.548216 0.08643,0 0.173567,0.0021 0.260703,0.0042 0.09031,0.0025 0.180975,0.0042 0.270581,0.0042 l 0.05821,-3.53e-4 c 0.257528,-0.0028 0.515761,-0.0035 0.773642,-0.0035 l 0.609247,0.0011 0.6096,0.0011 1.260122,3.53e-4 h 1.260475 c 1.021997,0 2.0447,-3.53e-4 3.066697,-0.0018 0.01482,0 0.02893,0 0.04233,3.53e-4 -0.03669,0.01058 -0.07267,0.02434 -0.106187,0.04269 -0.293863,0.160514 -0.531988,0.401108 -0.763058,0.633942 l -0.02328,0.02364 c -1.283759,1.293636 -2.72662,2.475089 -4.288014,3.510844 -0.766586,0.509059 -1.086908,1.194859 -0.951794,2.038703 0.05821,0.364772 0.04339,0.739775 0.02752,1.13665 -0.01341,0.341136 -0.02752,0.694267 0.0092,1.042458 0.09807,0.937331 -0.240241,1.553281 -1.096786,1.997428 -0.336902,0.174272 -0.466372,0.708025 -0.498122,0.867481 -0.02963,0.149577 -0.110067,0.65793 0.100895,0.908049 0.05927,0.07091 0.143933,0.152048 0.269875,0.152048 0.108655,0 0.18415,-0.05927 0.263877,-0.122061 l 0.03598,-0.02752 c 0.100541,-0.07726 0.226483,-0.134761 0.360186,-0.195439 0.151694,-0.06914 0.307975,-0.140406 0.447322,-0.249414 0.03881,-0.03069 0.0695,-0.05186 0.09349,-0.06668 0.0028,0.02716 0.0056,0.06385 0.0063,0.112183 0.0035,0.183092 0.0028,0.366184 0.0021,0.549275 l -7.06e-4,0.244828 -3.53e-4,1.494014 c -3.52e-4,1.962856 -3.52e-4,3.926064 0.0032,5.888919 0,0.03492 -0.0042,0.07091 -0.0078,0.108303 -0.01729,0.166864 -0.04551,0.44697 0.246592,0.606425 0.125236,0.06773 0.250825,0.102306 0.374297,0.102306 0.220486,0 0.420159,-0.112536 0.562681,-0.317147 0.180269,-0.258939 0.460728,-0.403931 0.757766,-0.557389 0.334786,-0.172861 0.681214,-0.352073 0.921809,-0.707673 0.28575,-0.422627 0.716491,-0.681566 1.171927,-0.956027 0.145345,-0.08784 0.290689,-0.175331 0.431448,-0.268111 0.680155,-0.449439 0.758472,-1.141589 0.750711,-1.694392 -0.01588,-1.119011 -0.01199,-2.258131 -0.0085,-3.359503 0.0053,-1.51518 0.01023,-3.082219 -0.03528,-4.623505 -0.02293,-0.79375 0.232128,-1.350434 0.854075,-1.861609 0.07479,-0.06174 0.138995,-0.128411 0.200731,-0.192616 0.14605,-0.1524 0.261408,-0.272697 0.475192,-0.289983 0.198966,-0.01552 0.305858,-0.239889 0.369005,-0.407459 0.07338,-0.19438 0.315031,-1.036108 0.06032,-1.29928 -0.111125,-0.1143 -0.230364,-0.172509 -0.354189,-0.172509 -0.182033,0 -0.31503,0.12312 -0.422275,0.221898 -0.07444,0.06844 -0.151341,0.1397 -0.208139,0.1397 -0.01164,0 -0.02505,-0.0028 -0.03986,-0.0088 -0.02928,-0.01129 -0.06032,-0.01729 -0.09243,-0.01729 -0.167923,0 -0.309386,0.148167 -0.545748,0.410633 -0.04974,0.05539 -0.09807,0.109009 -0.141111,0.153106 -0.04657,0.04727 -0.08361,0.08149 -0.112183,0.105128 -3.53e-4,-0.01058 -3.53e-4,-0.02258 -7.06e-4,-0.03563 -3.52e-4,-0.212372 -0.01376,-0.431447 -0.02646,-0.643467 -0.05644,-0.940152 -0.109714,-1.828447 0.855486,-2.374194 0.66675,-0.377472 1.20262,-0.899583 1.720497,-1.404761 0.369006,-0.359128 0.717198,-0.6985 1.110898,-0.992717 l 0.373591,-0.278341 c 1.299986,-0.968023 2.644775,-1.9692058 3.808942,-3.1580668 0.02681,-0.027517 0.07796,-0.061736 0.127353,-0.095603 C 28.796474,7.8172376 29.144313,7.5808765 28.904071,7.2231599 28.77319,7.0287793 28.472977,7.0125515 28.176643,7.0125515 l -0.07338,3.528e-4 -0.06456,3.528e-4 -0.0254,-3.528e-4 c -0.929569,-0.00459 -1.859491,-0.00564 -2.789766,-0.00564 l -1.299281,3.527e-4 -1.298928,3.528e-4 -1.455914,-7.055e-4 z m 0,0.200025 c 0.971197,0 1.941689,0.00141 2.912533,0.00141 0.86607,0 1.732139,-0.00106 2.598209,-0.00106 0.929922,0 1.859491,0.00106 2.788708,0.006 h 0.02646 c 0.04339,0 0.08996,-3.528e-4 0.137936,-3.528e-4 0.2286,0 0.485422,0.00953 0.56127,0.1224139 0.177094,0.2631722 -0.208492,0.3834694 -0.360186,0.5386917 -1.262592,1.2886972 -2.7178,2.3389169 -4.159603,3.4159469 -0.9779,0.73025 -1.712031,1.762125 -2.810228,2.383014 -1.310569,0.741892 -0.93345,2.046111 -0.930275,3.192992 3.53e-4,0.2159 0.05327,0.291747 0.129117,0.291747 0.09172,0 0.217311,-0.111125 0.325967,-0.221897 0.173213,-0.176036 0.427213,-0.503767 0.544336,-0.503767 0.0071,0 0.01305,0.0011 0.01905,0.0035 0.03986,0.01552 0.07761,0.02258 0.113241,0.02258 0.258234,0 0.414161,-0.361598 0.630414,-0.361598 0.0635,0 0.132292,0.0314 0.210256,0.111831 0.173214,0.178858 -0.08326,1.351139 -0.30092,1.368425 -0.398286,0.0314 -0.545394,0.328083 -0.7874,0.526697 -0.636058,0.523169 -0.953205,1.120069 -0.926747,2.022475 0.07832,2.657828 0.006,5.319889 0.04339,7.979833 0.0092,0.648406 -0.12312,1.169458 -0.660753,1.524353 -0.585964,0.38735 -1.252361,0.678039 -1.658761,1.279525 -0.420158,0.620536 -1.256947,0.657225 -1.678164,1.262944 -0.107244,0.153811 -0.245533,0.23107 -0.398639,0.23107 -0.0889,0 -0.182739,-0.02611 -0.278341,-0.07796 -0.225425,-0.122767 -0.134409,-0.352778 -0.134762,-0.539397 -0.0046,-2.460625 -0.0032,-4.921603 -0.0032,-7.382581 0,-0.265641 0.0039,-0.531636 -0.0011,-0.79763 -0.0035,-0.216606 -0.03916,-0.341489 -0.14605,-0.341489 -0.0635,0 -0.153105,0.0448 -0.277283,0.141816 -0.238125,0.187325 -0.565503,0.259292 -0.806097,0.443795 -0.08326,0.06421 -0.130881,0.108303 -0.1778,0.108303 -0.03492,0 -0.06879,-0.02399 -0.117123,-0.08079 -0.218369,-0.258939 -0.03598,-1.275998 0.336198,-1.46932 0.908755,-0.470605 1.313391,-1.152878 1.203677,-2.195689 -0.07585,-0.723547 0.07655,-1.476375 -0.03775,-2.189338 -0.138642,-0.864306 0.248708,-1.432278 0.864658,-1.840795 1.561395,-1.036108 3.001434,-2.208389 4.319411,-3.53695 0.227542,-0.229305 0.462845,-0.471311 0.740481,-0.622653 0.148167,-0.08114 0.468136,-0.04551 0.460022,-0.224366 -0.0092,-0.186972 -0.278341,-0.194734 -0.478014,-0.194734 h -0.01446 c -1.021997,0.0014 -2.044347,0.0018 -3.066344,0.0018 h -2.520597 c -0.406047,0 -0.8128,-0.0025 -1.218847,-0.0025 -0.258939,0 -0.517525,0.0011 -0.776111,0.0039 -0.0187,3.53e-4 -0.0374,3.53e-4 -0.05574,3.53e-4 -0.176036,0 -0.355248,-0.0081 -0.531284,-0.0081 -0.516819,0 -1.010355,0.07267 -1.3462,0.646995 -0.08361,0.143228 -0.2032,0.177094 -0.332669,0.177094 -0.117122,0 -0.242711,-0.02787 -0.357364,-0.02787 -0.01341,0 -0.0261,3.53e-4 -0.0388,0.0011 -0.0067,3.53e-4 -0.01305,7.06e-4 -0.02011,7.06e-4 -0.1143,0 -0.289983,-0.05503 -0.31115,-0.122061 -0.05221,-0.164748 -0.08855,-0.395817 -0.0099,-0.526698 0.133703,-0.221191 0.341137,-0.41275 0.552803,-0.56903 1.551517,-1.146881 3.074811,-2.330803 4.449586,-3.6854696 0.255059,-0.2515305 0.511175,-0.2853972 0.7747,-0.2853972 0.09737,0 0.195439,0.00459 0.294922,0.00459 h 0.01729 c 0.891116,-0.00529 1.782938,-0.00635 2.674055,-0.00635"
       style="fill:#ffffff;fill-opacity:1;fill-rule:nonzero;stroke:none;stroke-width:0.352778"
       id="path380" />
  </g>
</svg>
