<?xml version="1.0" encoding="UTF-8" standalone="no"?>
<svg
   xmlns:dc="http://purl.org/dc/elements/1.1/"
   xmlns:cc="http://creativecommons.org/ns#"
   xmlns:rdf="http://www.w3.org/1999/02/22-rdf-syntax-ns#"
   xmlns:svg="http://www.w3.org/2000/svg"
   xmlns="http://www.w3.org/2000/svg"
   xmlns:sodipodi="http://sodipodi.sourceforge.net/DTD/sodipodi-0.dtd"
   xmlns:inkscape="http://www.inkscape.org/namespaces/inkscape"
   sodipodi:docname="rook.svg"
   inkscape:version="1.0.1 (3bc2e813f5, 2020-09-07)"
   id="svg8"
   version="1.1"
   viewBox="0 0 21.166666 42.333335"
   height="160"
   width="80"
   inkscape:export-filename="/home/pwinckles/workspace/pcio/rook/png/rook.png"
   inkscape:export-xdpi="96"
   inkscape:export-ydpi="96">
  <defs
     id="defs2">
    <rect
       id="rect21"
       height="37.451087"
       width="15.404192"
       y="4.0844946"
       x="4.1361866" />
    <rect
       id="rect12"
       height="37.309349"
       width="15.461461"
       y="3.0125386"
       x="2.7677941" />
  </defs>
  <sodipodi:namedview
     inkscape:window-maximized="0"
     inkscape:window-y="27"
     inkscape:window-x="0"
     inkscape:window-height="1019"
     inkscape:window-width="1421"
     units="px"
     showgrid="false"
     inkscape:document-rotation="0"
     inkscape:current-layer="layer1"
     inkscape:document-units="mm"
     inkscape:cy="80"
     inkscape:cx="40"
     inkscape:zoom="1"
     inkscape:pageshadow="2"
     inkscape:pageopacity="0.0"
     borderopacity="1.0"
     bordercolor="#666666"
     pagecolor="#ffffff"
     id="base"
     inkscape:snap-text-baseline="true"
     showguides="false">
    <sodipodi:guide
       position="0,24.341667"
       orientation="0,1"
       id="guide9037"
       inkscape:label=""
       inkscape:locked="false"
       inkscape:color="rgb(0,0,255)" />
    <sodipodi:guide
       position="21.166667,42.333333"
       orientation="160,0"
       id="guide9039" />
    <sodipodi:guide
       position="21.166667,5.55625"
       orientation="0,1"
       id="guide9041"
       inkscape:label=""
       inkscape:locked="false"
       inkscape:color="rgb(0,0,255)" />
    <sodipodi:guide
       position="0,0"
       orientation="-160,0"
       id="guide9043" />
  </sodipodi:namedview>
  <metadata
     id="metadata5">
    <rdf:RDF>
      <cc:Work
         rdf:about="">
        <dc:format>image/svg+xml</dc:format>
        <dc:type
           rdf:resource="http://purl.org/dc/dcmitype/StillImage" />
        <dc:title></dc:title>
      </cc:Work>
    </rdf:RDF>
  </metadata>
  <g
     id="layer1"
     inkscape:groupmode="layer"
     inkscape:label="Layer 1">
    <text
       style="line-height:1.25;font-family:C059;font-size:17.63888889px;-inkscape-font-specification:C059;text-align:center;white-space:pre;shape-inside:url(#rect12);"
       id="text10"
       xml:space="preserve" />
    <g
       id="g1058"
       transform="matrix(0.1679707,0,0,0.1679707,2.1837252,12.762077)">
      <g
         id="g1040">
        <path
           d="m 87.116,55.467 c -2.788,-0.92 -6.119,-2.209 -9.435,-3.589 0,0 10.417,-2.158 9.238,-3.363 C 85.741,47.319 68.442,47.879 68.442,47.879 64.522,46.113 61.765,44.8 61.765,44.8 c 0,0 1.241,-1.347 -2.342,-2.92 -2.93,-1.288 -10.904,-4.819 -10.904,-4.819 0,0 0.48,-1.975 -6.183,-4.343 -0.188,-0.067 -0.376,-0.134 -0.565,-0.201 -0.015,-0.008 -0.04,-0.016 -0.054,-0.016 -1.295,-0.405 -2.728,-0.539 -4.162,-0.421 -2.749,-1.764 -6.641,-3.755 -6.641,-3.755 l -0.451,-6.301 c 1.064,-2.617 7.153,-2.233 7.153,-2.233 0,0 -0.6,-2.198 -2.566,-2.813 -1.968,-0.616 -4.814,-1.018 -4.814,-1.018 l -3.451,-2.072 c -5.604,-1.951 -8.643,-0.052 -8.643,-0.052 0,0 -3.218,3.875 -4.289,6.282 l -3.226,22.416 c 0.119,3.129 9.71,18.644 9.717,18.662 0,0 5.342,2.821 7.081,3.363 0.823,0.26 1.671,0.477 2.532,0.671 -0.005,0.02 -0.017,0.038 -0.019,0.06 -0.051,0.54 -0.377,4.867 1.833,7.806 L 27.303,84.4 c -0.005,0.002 -0.01,0.002 -0.014,0.005 -0.009,0.004 -0.099,0.057 -0.267,0.148 -0.18,0.083 -0.45,0.2 -0.82,0.292 -0.729,0.203 -1.808,0.337 -2.887,0.367 -1.053,0.029 -2.262,-0.071 -3.163,0.581 -0.189,0.138 -0.337,0.296 -0.442,0.446 -0.112,0.146 -0.177,0.296 -0.235,0.411 -0.094,0.233 -0.133,0.367 -0.133,0.367 -0.003,0.015 0,0.033 0.014,0.042 0.015,0.011 0.037,0.006 0.047,-0.01 0,0 0.08,-0.12 0.235,-0.307 0.083,-0.085 0.173,-0.189 0.305,-0.284 0.121,-0.103 0.271,-0.2 0.445,-0.267 0.878,-0.413 1.972,-0.029 2.878,0.074 1.155,0.13 2.323,0.104 3.233,-0.048 0.433,-0.07 0.802,-0.188 1.071,-0.292 0.074,0.052 0.15,0.098 0.235,0.148 0.166,0.107 0.313,0.137 0.492,0.196 0.526,0.184 1.15,0.165 1.698,0.139 0.581,-0.028 1.158,-0.102 1.738,-0.139 0.517,-0.032 0.973,0.049 1.273,0.514 0.086,0.135 0.11,0.232 0.11,0.232 0.003,0.012 0.014,0.022 0.028,0.025 0.019,0.003 0.037,-0.01 0.04,-0.028 0.001,-0.005 0.017,-0.105 -0.016,-0.286 -0.01,-0.094 -0.045,-0.199 -0.097,-0.324 C 33.02,86.28 32.925,86.152 32.809,86.03 32.498,85.769 32.181,85.61 31.773,85.554 30.78,85.42 29.678,85.422 28.757,84.985 28.352,84.793 28.509,84.688 28.537,84.476 l 8.112,-18.144 c 0.022,-0.051 0.033,-0.167 0.033,-0.223 0,-0.002 -0.001,-0.004 -0.001,-0.007 2.336,0.083 4.7,-0.075 7.016,-0.471 0,0 0,0.001 0,0.002 0.051,0.222 1.196,5.023 5.184,7.792 l -3.153,10.958 c -0.019,0.009 -0.041,0.009 -0.059,0.021 -0.009,0.004 -0.099,0.057 -0.267,0.148 -0.179,0.083 -0.45,0.2 -0.82,0.292 -0.73,0.203 -1.808,0.337 -2.888,0.367 -1.053,0.029 -2.261,-0.071 -3.162,0.581 -0.19,0.138 -0.339,0.296 -0.443,0.446 -0.111,0.146 -0.177,0.296 -0.234,0.411 -0.094,0.233 -0.133,0.367 -0.133,0.367 -0.004,0.015 0,0.033 0.013,0.042 0.016,0.011 0.037,0.006 0.048,-0.01 0,0 0.08,-0.12 0.234,-0.307 0.083,-0.085 0.173,-0.189 0.306,-0.284 0.12,-0.103 0.271,-0.2 0.445,-0.267 0.878,-0.413 1.972,-0.029 2.878,0.074 1.154,0.13 2.322,0.104 3.233,-0.048 0.433,-0.07 0.802,-0.188 1.071,-0.292 0.073,0.052 0.15,0.098 0.235,0.148 0.166,0.107 0.313,0.137 0.492,0.196 0.525,0.184 1.149,0.165 1.697,0.139 0.581,-0.028 1.159,-0.102 1.739,-0.139 0.516,-0.032 0.973,0.049 1.272,0.514 0.087,0.135 0.11,0.232 0.11,0.232 0.003,0.012 0.014,0.022 0.028,0.025 0.019,0.003 0.037,-0.01 0.04,-0.028 10e-4,-0.005 0.017,-0.105 -0.016,-0.286 -0.01,-0.094 -0.045,-0.199 -0.096,-0.324 -0.05,-0.122 -0.146,-0.25 -0.262,-0.372 -0.312,-0.261 -0.629,-0.42 -1.036,-0.476 -0.994,-0.134 -2.096,-0.132 -3.017,-0.569 -0.417,-0.198 -0.236,-0.303 -0.217,-0.529 l 4.944,-14.009 c 0.025,-0.077 0.027,-0.159 0.007,-0.238 -1.062,-3.986 -0.301,-6.674 -0.294,-6.702 0.034,-0.115 10e-4,-0.229 -0.06,-0.329 1.041,-0.506 2.049,-1.073 3.006,-1.727 1.934,-1.321 3.518,-3.65 3.897,-4.236 1.115,0.075 2.238,0.142 3.361,0.201 0,0 17.771,11.695 22.288,11.695 1.869,0 -11.776,-11.194 -11.776,-11.194 6.717,0.251 12.42,0.31 14.824,0.059 5.107,-0.517 0,-2.508 0,-2.508 z M 22.301,20.225 c -1.866,0 -1.376,-1.673 -1.376,-1.673 0,0 1.474,-1.046 3.242,0 0,0 -0.589,1.673 -1.866,1.673 z"
           id="path1038" />
      </g>
      <text
         x="0"
         y="115"
         fill="#000000"
         font-size="5px"
         font-weight="bold"
         font-family="'Helvetica Neue', Helvetica, Arial-Unicode, Arial, Sans-serif"
         id="text1042" />
      <text
         x="0"
         y="120"
         fill="#000000"
         font-size="5px"
         font-weight="bold"
         font-family="'Helvetica Neue', Helvetica, Arial-Unicode, Arial, Sans-serif"
         id="text1044" />
    </g>
  </g>
</svg>
